<?xml version="1.0" standalone="no"?>
<!DOCTYPE svg PUBLIC "-//W3C//DTD SVG 20010904//EN"
 "http://www.w3.org/TR/2001/REC-SVG-20010904/DTD/svg10.dtd">
<svg version="1.0" xmlns="http://www.w3.org/2000/svg"
 width="1344.000000pt" height="1344.000000pt" viewBox="0 0 1344.000000 1344.000000"
 preserveAspectRatio="xMidYMid meet">
<metadata>
Created by potrace 1.14, written by Peter Selinger 2001-2017
</metadata>
<g transform="translate(0.000000,1344.000000) scale(0.100000,-0.100000)"
fill="#000000" stroke="none">
<path d="M1334 10399 c-2 -4 -15 -4 -29 -1 -28 5 -26 19 -26 -173 0 -153 -1
-145 24 -145 12 1 72 0 132 0 61 0 142 0 180 0 39 0 154 0 257 -1 103 0 191 2
196 5 4 2 14 1 21 -3 7 -5 28 -5 47 -1 19 4 34 5 34 1 0 -4 16 -5 35 -3 24 3
35 10 36 21 4 65 3 101 -4 101 -5 0 -5 4 -2 10 6 9 8 67 6 150 -1 34 -3 36
-38 39 -21 2 -44 3 -50 2 -25 -2 -96 -3 -288 -2 -39 0 -113 1 -130 1 -127 4
-398 4 -401 -1z"/>
<path d="M3565 10402 c-40 -4 -55 -26 -45 -63 5 -16 6 -29 2 -29 -8 0 -5 -150
2 -158 3 -2 1 -12 -4 -22 -6 -12 -5 -23 4 -35 13 -18 31 -20 184 -12 28 1 52
-2 52 -6 0 -5 4 -6 8 -3 9 5 60 7 227 6 61 0 142 0 180 0 71 0 437 1 465 1 8
0 80 0 160 0 182 0 211 -1 221 -7 4 -2 10 0 14 6 4 6 11 8 16 4 5 -3 38 -5 72
-4 34 1 67 1 72 1 74 -2 384 -1 428 1 31 2 57 -1 57 -5 0 -5 4 -6 8 -3 9 5 63
7 240 5 68 0 126 2 129 5 12 12 31 -28 22 -46 -7 -12 -6 -18 1 -18 7 0 8 -6 0
-19 -7 -14 -7 -22 0 -26 6 -4 7 -11 4 -17 -9 -15 -10 -128 -1 -128 4 0 3 -8
-2 -18 -5 -10 -6 -24 -1 -33 5 -8 5 -21 0 -29 -5 -8 -5 -22 1 -32 5 -10 6 -18
2 -18 -4 0 -8 -11 -8 -25 0 -14 3 -25 7 -25 4 0 3 -13 -2 -29 -5 -17 -4 -33 2
-39 6 -6 6 -12 -1 -16 -7 -5 -8 -13 -2 -25 6 -10 6 -23 1 -31 -5 -8 -4 -22 1
-32 5 -10 6 -18 2 -18 -4 0 -8 -25 -8 -55 0 -30 4 -55 8 -55 4 0 3 -8 -2 -18
-6 -10 -6 -24 -1 -32 5 -8 6 -18 3 -23 -9 -14 -10 -67 -1 -67 4 0 3 -11 -2
-25 -6 -15 -6 -26 0 -30 6 -4 7 -13 1 -23 -6 -11 -6 -24 0 -35 6 -9 6 -17 2
-17 -4 0 -8 -13 -8 -29 0 -16 3 -27 7 -24 5 2 4 -7 -1 -20 -6 -16 -6 -28 2
-36 8 -8 8 -11 -2 -11 -10 0 -11 -3 -2 -14 8 -10 9 -16 1 -21 -6 -4 -7 -12 -1
-24 6 -10 6 -23 1 -31 -5 -8 -4 -22 1 -32 5 -10 6 -18 2 -18 -4 0 -8 -25 -8
-55 0 -30 4 -55 8 -55 4 0 3 -8 -2 -18 -6 -10 -6 -24 -1 -32 5 -8 6 -18 3 -23
-9 -14 -10 -67 -1 -67 4 0 3 -11 -2 -25 -6 -15 -6 -26 0 -30 6 -4 7 -13 1 -23
-6 -11 -6 -24 0 -35 6 -9 6 -17 2 -17 -4 0 -8 -13 -8 -29 0 -16 3 -27 7 -24 5
2 4 -7 -1 -20 -6 -16 -6 -28 2 -36 8 -8 8 -11 -2 -11 -10 0 -11 -3 -2 -14 8
-10 9 -16 1 -21 -6 -4 -7 -12 -1 -24 6 -10 6 -23 1 -31 -5 -8 -4 -22 1 -32 5
-10 6 -18 2 -18 -4 0 -8 -25 -8 -55 0 -30 4 -55 8 -55 4 0 3 -8 -2 -18 -6 -10
-6 -24 -1 -32 5 -8 6 -18 3 -23 -9 -14 -10 -67 -1 -67 4 0 3 -11 -2 -25 -6
-15 -6 -26 0 -30 6 -4 7 -13 1 -23 -6 -11 -6 -24 0 -35 6 -9 6 -17 2 -17 -4 0
-8 -13 -8 -29 0 -16 3 -27 7 -24 5 2 4 -7 -1 -20 -6 -16 -6 -28 2 -36 8 -8 8
-11 -2 -11 -10 0 -11 -3 -2 -14 8 -10 9 -16 1 -21 -6 -4 -7 -12 -1 -24 6 -10
6 -23 1 -31 -5 -8 -5 -21 0 -30 5 -9 4 -23 -2 -33 -8 -14 -13 -16 -24 -6 -11
9 -14 9 -14 -2 0 -10 -3 -10 -11 -2 -8 8 -20 8 -36 2 -16 -6 -22 -5 -18 1 4 7
-3 7 -19 0 -14 -5 -26 -6 -26 -2 0 4 -11 7 -25 7 -14 0 -25 -3 -25 -7 0 -4
-11 -3 -24 2 -15 5 -27 5 -34 -2 -6 -6 -12 -6 -16 1 -4 7 -15 7 -31 1 -15 -6
-27 -6 -30 0 -3 6 -15 6 -30 0 -14 -5 -25 -6 -25 -2 0 4 -11 7 -25 7 -14 0
-25 -3 -25 -7 0 -4 -11 -3 -24 2 -15 5 -27 5 -34 -2 -6 -6 -12 -6 -16 1 -4 7
-15 7 -31 1 -13 -5 -26 -6 -29 -2 -6 9 -48 8 -63 -1 -7 -4 -14 -3 -18 2 -4 7
-15 7 -30 1 -14 -5 -25 -6 -25 -2 0 4 -11 7 -25 7 -14 0 -25 -3 -25 -7 0 -4
-11 -3 -24 2 -15 5 -27 5 -34 -2 -6 -6 -12 -6 -16 1 -4 7 -15 7 -31 1 -13 -5
-26 -6 -29 -1 -5 7 -80 5 -103 -4 -7 -2 -13 -1 -13 3 0 4 -11 7 -25 7 -14 0
-25 -4 -25 -8 0 -4 -9 -3 -20 3 -12 6 -20 7 -20 1 0 -6 -11 -6 -30 -1 -18 5
-30 5 -30 0 0 -6 -10 -6 -25 0 -15 6 -26 6 -30 -1 -4 -5 -12 -6 -18 -2 -16 10
-48 10 -69 0 -11 -5 -18 -4 -18 3 0 8 -6 8 -20 0 -14 -8 -20 -8 -20 0 0 7 -6
8 -19 0 -14 -7 -22 -7 -26 0 -5 8 -11 7 -21 -1 -11 -9 -18 -9 -26 -1 -7 7 -19
7 -34 2 -13 -5 -24 -6 -24 -2 0 8 -85 6 -107 -3 -7 -2 -13 -1 -13 3 0 4 -13 7
-29 7 -16 0 -27 -3 -24 -7 2 -5 -6 -4 -19 0 -27 9 -70 8 -87 -2 -6 -4 -11 -2
-11 4 0 8 -6 8 -20 0 -14 -8 -20 -8 -20 0 0 8 -6 8 -20 0 -14 -8 -20 -8 -20 0
0 6 -5 8 -11 5 -13 -9 -79 -12 -79 -5 0 3 -11 5 -25 5 -14 0 -25 -4 -25 -8 0
-4 -9 -3 -20 3 -12 6 -20 7 -20 1 0 -6 -11 -6 -30 -1 -18 5 -30 5 -30 0 0 -6
-10 -6 -24 0 -15 5 -27 5 -34 -2 -6 -6 -12 -6 -16 0 -3 5 -25 6 -51 2 -25 -4
-45 -4 -45 -1 0 3 -11 6 -25 6 -14 0 -25 -4 -25 -8 0 -4 -9 -3 -20 3 -12 6
-20 7 -20 1 0 -6 -11 -6 -30 -1 -18 5 -30 5 -30 0 0 -6 -9 -6 -23 -1 -14 5
-30 5 -40 0 -12 -7 -17 -6 -17 2 0 8 -4 8 -15 -1 -11 -9 -15 -9 -15 -1 0 7 -4
10 -8 7 -9 -5 -7 -71 3 -86 3 -6 3 -10 -2 -10 -6 0 -8 -103 -4 -211 1 -9 7
-16 14 -17 61 -6 87 -6 87 1 0 4 9 3 20 -3 12 -6 20 -7 20 -1 0 6 11 6 30 1
18 -5 30 -5 30 0 0 6 10 6 24 0 15 -5 27 -5 34 2 6 6 12 6 16 0 3 -5 25 -6 51
-2 25 4 45 4 45 1 0 -3 11 -6 25 -6 14 0 25 4 25 8 0 4 9 3 20 -3 12 -6 20 -7
20 -1 0 6 11 6 30 1 18 -5 30 -5 30 0 0 6 10 6 25 0 15 -6 26 -6 30 1 4 5 12
6 18 2 16 -10 48 -10 70 0 10 5 17 4 17 -3 0 -8 6 -8 20 0 14 8 20 8 20 0 0
-7 6 -8 19 0 14 7 22 7 26 0 5 -8 11 -7 21 1 11 9 18 9 26 1 7 -7 19 -7 34 -2
13 5 24 6 24 2 0 -8 85 -6 108 3 6 2 12 1 12 -3 0 -4 13 -7 29 -7 16 0 27 3
24 7 -2 5 6 4 19 0 27 -9 70 -8 87 2 6 4 11 2 11 -4 0 -8 6 -8 20 0 14 8 20 8
20 0 0 -8 6 -8 20 0 14 8 20 8 20 0 0 -6 5 -8 11 -5 13 9 79 12 79 5 0 -3 11
-5 25 -5 14 0 25 4 25 8 0 4 9 3 20 -3 12 -6 20 -7 20 -1 0 6 11 6 30 1 18 -5
30 -5 30 0 0 6 10 6 25 0 15 -6 26 -6 30 1 4 5 12 6 18 2 16 -10 48 -10 70 0
10 5 17 4 17 -3 0 -8 6 -8 20 0 14 8 20 8 20 0 0 -7 6 -8 19 0 14 7 22 7 26 0
5 -8 11 -7 21 1 11 9 18 9 26 1 7 -7 19 -7 34 -2 13 5 24 6 24 2 0 -8 85 -6
108 3 6 2 12 1 12 -3 0 -4 13 -7 29 -7 16 0 27 3 24 7 -2 5 6 4 19 0 27 -9 70
-8 87 2 6 4 11 2 11 -4 0 -8 6 -8 20 0 14 8 20 8 20 0 0 -8 6 -8 20 0 14 8 20
8 20 0 0 -6 5 -8 11 -5 13 9 79 12 79 5 0 -3 11 -5 25 -5 14 0 25 4 25 8 0 4
9 3 20 -3 12 -6 20 -7 20 -1 0 6 11 6 30 1 18 -5 30 -5 30 0 0 6 10 6 24 0 15
-5 27 -5 34 2 6 6 12 6 16 0 11 -18 48 -1 43 19 -3 11 -1 19 4 19 6 0 5 8 -1
20 -6 11 -7 20 -3 20 4 0 8 13 8 29 0 16 -3 27 -7 24 -5 -2 -4 7 2 21 6 16 6
27 0 31 -6 4 -7 13 -1 23 6 11 6 24 0 34 -6 10 -6 19 0 22 5 3 7 14 4 24 -5
21 22 49 32 32 4 -7 12 -7 26 0 13 8 19 7 19 0 0 -8 6 -8 20 0 14 8 20 8 20 0
0 -7 6 -7 21 1 14 7 24 8 31 1 7 -7 19 -7 34 -2 15 6 24 6 24 0 0 -6 9 -6 24
0 17 6 26 5 28 -2 3 -7 14 -2 28 12 15 15 19 25 12 28 -9 3 -9 9 -2 23 8 13 7
19 0 19 -8 0 -8 6 0 20 8 14 8 20 0 20 -8 0 -8 6 0 20 8 14 8 20 0 20 -8 0 -8
6 0 20 8 14 8 20 0 20 -8 0 -8 6 0 20 8 14 8 20 0 20 -8 0 -8 6 0 20 8 14 8
20 0 20 -8 0 -8 6 0 20 8 14 8 20 0 20 -8 0 -8 6 0 20 8 14 8 20 0 20 -8 0 -8
6 0 20 8 14 8 20 0 20 -8 0 -8 6 0 20 8 14 8 20 0 20 -8 0 -8 6 0 20 8 14 8
20 0 20 -8 0 -8 6 0 20 8 14 8 20 0 20 -8 0 -8 6 0 20 8 14 8 20 0 20 -8 0 -8
6 0 20 8 14 8 20 0 20 -8 0 -8 6 0 20 8 14 8 20 0 20 -8 0 -8 6 0 20 8 14 8
20 0 20 -8 0 -8 6 0 20 8 14 8 20 0 20 -8 0 -8 6 0 20 8 14 8 20 0 20 -8 0 -8
6 0 20 8 14 8 20 0 20 -8 0 -8 6 0 20 8 14 8 20 0 20 -8 0 -8 6 0 20 8 14 8
20 0 20 -8 0 -8 6 0 20 8 14 8 20 0 20 -8 0 -8 6 0 20 8 14 8 20 0 20 -8 0 -8
6 0 20 8 14 8 20 0 20 -8 0 -8 6 0 20 8 14 8 20 0 20 -8 0 -8 6 0 20 8 14 8
20 0 20 -8 0 -8 6 0 20 8 14 8 20 0 20 -8 0 -8 6 0 20 8 14 8 20 0 20 -8 0 -8
6 0 20 8 14 8 20 0 20 -8 0 -8 6 0 20 8 14 8 20 0 20 -8 0 -8 6 0 20 8 14 8
20 0 20 -8 0 -8 6 0 20 8 14 8 20 0 20 -8 0 -8 6 0 20 8 14 8 20 0 20 -8 0 -8
6 0 20 8 14 8 20 0 20 -8 0 -8 6 0 20 8 14 8 20 0 20 -8 0 -8 6 0 20 8 14 8
20 0 20 -8 0 -8 6 0 20 8 14 8 20 0 20 -8 0 -8 6 0 20 8 14 8 20 0 20 -8 0 -8
6 0 20 8 14 8 20 0 20 -8 0 -8 6 0 20 8 14 8 20 0 20 -8 0 -8 6 0 20 8 14 8
20 0 20 -8 0 -8 6 0 20 8 14 8 20 0 20 -8 0 -8 6 0 20 8 14 8 20 0 20 -8 0 -8
6 0 20 8 14 8 20 0 20 -8 0 -8 6 0 20 8 14 8 20 0 20 -8 0 -8 6 0 20 8 14 8
20 0 20 -8 0 -8 6 0 20 8 14 8 20 0 20 -8 0 -8 6 0 20 8 14 8 20 0 20 -8 0 -8
6 0 20 8 14 8 20 0 20 -8 0 -8 6 0 20 8 14 8 20 0 20 -8 0 -8 6 0 20 8 14 8
26 0 40 -6 11 -7 20 -3 20 4 0 8 16 8 35 0 19 -4 35 -8 35 -4 0 -3 8 2 18 6
11 6 24 0 34 -6 10 -6 19 0 23 7 4 7 15 1 30 -5 14 -6 25 -2 25 4 0 7 11 7 25
0 14 -2 25 -5 25 -3 0 -5 16 -5 35 0 19 2 35 5 35 3 0 5 11 5 25 0 14 -4 25
-8 25 -4 0 -4 7 1 16 19 33 3 54 -42 55 -22 0 -93 1 -156 2 -86 2 -114 5 -112
15 1 6 -2 12 -8 12 -6 0 -6 10 1 27 7 19 7 29 0 31 -6 2 -7 12 -1 26 5 15 5
27 -2 34 -7 7 -6 17 1 31 8 15 8 21 1 21 -8 0 -8 6 0 20 8 14 8 20 0 20 -8 0
-8 6 0 20 8 14 8 20 0 20 -7 0 -8 6 -1 18 12 23 35 21 -274 21 -137 0 -257 0
-265 0 -8 1 -35 0 -60 0 -25 0 -51 -1 -57 0 -36 1 -404 2 -410 0 -5 -1 -12 -1
-16 0 -13 2 -291 3 -302 0 -5 -1 -14 -1 -19 0 -5 1 -61 1 -125 1 -132 -2 -121
-1 -181 -1 -25 0 -52 1 -60 0 -8 0 -71 1 -140 2 -69 0 -152 0 -185 0 -33 0
-67 -1 -75 0 -8 0 -40 0 -70 0 -30 -1 -98 0 -150 1 -52 2 -108 2 -125 0z"/>
<path d="M7397 10402 c-26 -3 -61 -42 -37 -42 8 0 8 -6 0 -20 -8 -14 -8 -20 0
-20 8 0 8 -6 0 -20 -8 -14 -8 -20 0 -20 7 0 8 -6 1 -17 -11 -22 -11 -31 0 -60
5 -13 5 -23 0 -23 -9 0 -9 -43 0 -50 4 -3 3 -16 -2 -29 -7 -18 -15 -22 -34
-19 -14 3 -25 1 -25 -4 0 -5 -5 -6 -11 -3 -6 4 -38 6 -72 5 -34 -1 -69 -1 -77
-1 -57 4 -86 -2 -98 -17 -8 -10 -9 -18 -2 -20 7 -3 7 -10 0 -23 -8 -13 -7 -19
0 -19 8 0 8 -6 0 -20 -8 -14 -8 -20 0 -20 8 0 8 -6 0 -20 -8 -14 -8 -20 0 -20
8 0 8 -6 0 -20 -8 -14 -8 -20 0 -20 8 0 8 -6 0 -20 -8 -14 -8 -20 0 -20 8 0 8
-6 0 -20 -8 -14 -8 -20 0 -20 8 0 8 -6 0 -20 -8 -14 -8 -20 0 -20 8 0 8 -6 0
-20 -8 -14 -8 -20 0 -20 8 0 8 -6 0 -20 -8 -14 -8 -20 0 -20 8 0 8 -6 0 -20
-8 -14 -8 -20 0 -20 7 0 7 -6 0 -21 -8 -15 -8 -24 0 -34 8 -9 8 -15 0 -20 -7
-4 -7 -12 0 -26 6 -10 7 -19 3 -19 -4 0 -8 -11 -8 -25 0 -14 3 -25 7 -25 4 0
5 -7 1 -17 -5 -13 -2 -15 15 -11 12 4 22 3 22 0 0 -4 19 -6 42 -4 40 2 77 2
182 -1 30 0 43 4 54 21 10 15 11 22 3 22 -9 0 -9 5 -1 20 8 14 8 20 0 20 -8 0
-8 6 0 20 8 14 8 20 0 20 -7 0 -7 6 0 21 8 15 8 24 0 34 -8 9 -8 15 0 20 6 4
7 12 1 24 -6 10 -6 23 -1 31 5 8 4 22 -1 32 -5 10 -6 18 -2 18 4 0 8 25 8 55
0 30 -4 55 -8 55 -4 0 -3 8 2 18 5 10 6 24 1 31 -4 8 -4 26 0 41 4 15 3 34 -2
43 -5 10 -5 17 -1 17 5 0 7 20 6 44 l-2 43 39 -7 c26 -5 37 -4 33 3 -4 6 -1 7
6 3 11 -7 295 -10 424 -4 31 2 57 -1 57 -5 0 -5 4 -6 8 -3 9 5 44 6 242 6 69
1 130 1 135 1 6 0 39 -1 75 -1 36 0 91 1 123 2 31 2 57 -1 57 -5 0 -5 4 -6 8
-3 9 5 44 6 242 6 69 1 130 1 135 1 6 0 42 0 80 0 39 0 79 0 90 0 321 1 375 0
386 -7 4 -2 10 0 14 6 4 6 11 8 16 4 5 -3 38 -5 72 -4 34 1 69 1 77 1 87 -3
193 0 201 4 5 4 9 1 9 -4 0 -6 6 -10 13 -9 16 4 26 48 15 70 -5 10 -4 19 2 23
5 3 6 15 1 27 -4 11 -4 40 -1 65 4 24 3 46 -1 49 -5 2 -4 16 1 29 6 15 6 27 0
30 -5 3 -7 12 -4 20 4 10 -7 14 -53 15 -32 1 -69 1 -83 0 -14 -1 -29 -2 -35
-1 -35 1 -242 2 -250 0 -5 -1 -14 -1 -18 0 -13 2 -291 3 -302 0 -5 -1 -14 -1
-19 0 -5 1 -61 1 -125 1 -132 -2 -121 -1 -181 -1 -25 0 -52 1 -60 0 -8 0 -71
1 -140 2 -69 0 -152 0 -185 0 -33 0 -67 -1 -75 0 -8 0 -40 0 -70 0 -30 -1
-100 -1 -155 0 -55 0 -138 0 -185 0 -47 0 -92 0 -100 0 -8 0 -28 0 -45 -1 -16
0 -115 1 -220 2 -104 2 -202 2 -218 0z"/>
<path d="M11250 10402 c-56 -5 -58 -7 -50 -51 4 -23 5 -41 1 -41 -3 0 -6 -34
-6 -75 0 -41 2 -75 5 -75 7 0 4 -66 -5 -79 -4 -7 -12 -8 -24 -2 -9 5 -23 6
-30 2 -7 -5 -29 -5 -49 -1 -21 3 -49 3 -64 -1 -15 -4 -29 -5 -32 -2 -3 3 -29
6 -58 6 -48 -1 -53 -3 -52 -22 0 -11 -2 -21 -5 -21 -7 0 -4 -87 3 -106 3 -8 2
-14 -2 -14 -8 0 -6 -85 2 -106 3 -8 2 -14 -2 -14 -8 0 -6 -85 2 -106 3 -8 2
-14 -2 -14 -4 0 -6 -42 -4 -92 1 -51 2 -99 2 -105 0 -7 0 -33 0 -58 0 -25 0
-52 0 -60 0 -8 0 -35 0 -60 0 -25 0 -52 0 -60 0 -8 0 -35 0 -60 0 -25 0 -53 0
-62 0 -65 2 -108 6 -115 3 -4 2 -8 -3 -8 -9 0 -8 -83 1 -106 3 -8 2 -14 -2
-14 -8 0 -6 -85 2 -106 3 -8 2 -14 -2 -14 -8 0 -6 -85 2 -106 3 -8 2 -14 -2
-14 -8 0 -6 -85 2 -106 3 -8 2 -14 -2 -14 -8 0 -6 -85 2 -106 3 -8 2 -14 -2
-14 -4 0 -6 -42 -4 -92 1 -51 2 -99 2 -105 0 -7 0 -33 0 -58 0 -25 0 -52 0
-60 0 -8 0 -35 0 -60 0 -25 0 -52 0 -60 0 -8 0 -35 0 -60 0 -25 0 -53 0 -62 0
-65 2 -108 6 -115 3 -4 2 -8 -3 -8 -4 0 -7 -17 -6 -37 2 -42 3 -80 3 -120 0
-29 29 -61 40 -44 3 6 11 6 20 1 8 -5 21 -5 31 1 12 6 20 5 24 -1 5 -7 11 -8
19 -1 7 6 17 6 26 1 8 -5 21 -5 32 1 12 7 18 6 18 -1 0 -8 6 -8 20 0 13 7 20
7 20 1 0 -7 8 -7 24 -1 44 16 44 14 47 -270 1 -8 -1 -22 -3 -30 -2 -9 4 -14
15 -14 9 1 17 -1 17 -5 0 -3 13 -6 29 -6 16 0 27 3 24 7 -2 5 6 4 19 0 27 -9
70 -8 87 2 6 4 11 2 11 -4 0 -8 6 -8 20 0 14 8 20 8 20 0 0 -8 6 -8 20 0 14 8
20 8 20 0 0 -7 6 -7 21 1 14 7 24 8 31 1 7 -7 19 -7 34 -2 13 5 24 6 24 2 0
-4 11 -7 25 -7 14 0 25 3 25 7 0 4 11 3 24 -2 15 -5 27 -5 34 2 6 6 12 6 16
-1 4 -7 15 -7 31 -1 16 6 27 6 31 -1 4 -7 10 -6 19 1 10 8 15 8 20 0 5 -8 10
-8 20 0 9 7 15 8 19 1 5 -7 15 -7 31 -1 14 5 25 6 25 2 0 -4 11 -7 25 -7 14 0
25 3 25 7 0 4 11 3 24 -2 15 -5 27 -5 34 2 6 6 12 6 16 -1 4 -7 15 -7 31 -1
16 6 27 6 31 -1 4 -7 10 -7 18 0 9 7 16 7 23 0 7 -7 13 -7 17 0 5 8 8 258 4
311 -1 15 -48 22 -48 7 0 -4 -8 -3 -18 2 -11 6 -24 6 -34 0 -11 -6 -19 -5 -23
1 -5 8 -11 7 -21 -1 -11 -9 -18 -9 -26 -1 -7 7 -19 7 -34 2 -13 -5 -24 -6 -24
-2 0 8 -85 6 -107 -3 -7 -2 -13 -1 -13 3 0 4 -13 7 -29 7 -16 0 -27 -3 -24 -7
2 -5 -6 -4 -19 0 -27 9 -70 8 -87 -2 -6 -4 -11 -2 -11 4 0 8 -6 8 -20 0 -14
-8 -20 -8 -20 0 0 8 -6 8 -20 0 -14 -8 -20 -8 -20 0 0 7 -6 7 -21 -1 -14 -7
-24 -8 -31 -1 -7 7 -19 7 -34 2 -13 -5 -24 -6 -24 -2 0 4 -11 7 -25 7 -14 0
-25 -3 -25 -7 0 -4 -10 -4 -22 1 -13 5 -33 5 -46 0 -14 -6 -21 -5 -17 0 3 6
-6 6 -24 1 -19 -5 -33 -4 -40 3 -8 8 -11 7 -11 -2 0 -10 -3 -11 -13 -2 -8 6
-16 8 -20 5 -3 -3 -6 45 -6 108 -1 62 -2 120 -2 128 0 8 1 42 1 75 1 33 1 94
1 135 -1 41 -1 98 0 125 0 28 0 55 -1 60 -1 6 -2 14 -1 19 3 13 3 129 1 141
-1 6 -2 14 -1 19 3 13 3 129 1 141 -1 6 -1 15 0 20 5 25 1 295 -5 304 -3 6 -3
11 2 11 4 0 7 24 5 52 -2 29 -2 73 -1 98 1 25 1 51 0 58 -2 21 -2 36 -1 97 1
33 1 94 1 135 -1 41 -1 98 0 125 0 28 0 55 -1 60 -1 6 -2 14 -1 19 3 13 3 129
1 141 -1 6 -2 14 -1 19 3 13 3 129 1 141 -1 6 -1 15 0 20 1 6 2 76 2 157 l0
148 72 0 c106 1 138 0 147 -6 4 -2 10 0 14 6 4 6 11 8 16 4 10 -6 144 -7 252
-2 31 2 57 -1 57 -5 0 -5 4 -6 8 -3 9 5 44 6 242 6 158 1 150 -1 150 27 1 13
1 70 1 128 0 58 0 118 -1 133 0 16 -6 29 -12 30 -32 3 -401 4 -448 2 -14 -1
-29 -2 -35 -1 -64 3 -247 2 -250 -1 -2 -2 -32 -1 -67 2 -35 3 -79 4 -98 2z"/>
<path d="M2370 10080 c0 -3 -29 -3 -65 -2 -65 4 -72 0 -65 -33 1 -5 1 -46 1
-90 -2 -164 -2 -180 -1 -190 1 -5 1 -14 0 -20 -3 -13 -3 -287 0 -300 1 -5 1
-14 0 -20 -1 -5 -1 -30 -1 -55 2 -51 2 -58 1 -118 0 -23 2 -47 5 -52 4 -6 3
-10 -2 -10 -4 0 -7 -24 -5 -52 3 -50 3 -60 1 -90 0 -7 0 -40 0 -73 1 -33 1
-82 0 -110 0 -27 0 -54 1 -60 1 -5 1 -14 0 -20 -5 -25 -1 -295 5 -304 3 -6 3
-11 -2 -11 -4 0 -7 -24 -5 -52 2 -29 2 -73 1 -98 -1 -25 -1 -51 0 -57 2 -22 2
-37 1 -98 -1 -33 -1 -94 -1 -135 1 -41 1 -97 0 -125 0 -27 0 -54 1 -60 1 -5 1
-14 0 -20 -5 -26 -2 -204 4 -214 4 -6 3 -11 -1 -11 -5 0 -7 -15 -5 -33 4 -35
-20 -69 -33 -47 -4 7 -12 7 -26 0 -13 -8 -19 -7 -19 0 0 7 -6 8 -19 0 -14 -7
-22 -7 -26 0 -5 8 -11 7 -21 -1 -11 -9 -18 -9 -26 -1 -7 7 -19 7 -34 2 -13 -5
-24 -6 -24 -2 0 8 -85 6 -107 -3 -7 -2 -13 -1 -13 3 0 4 -13 7 -29 7 -16 0
-27 -3 -24 -7 2 -5 -6 -4 -19 0 -27 9 -70 8 -87 -2 -6 -4 -11 -2 -11 4 0 8 -6
8 -20 0 -14 -8 -20 -8 -20 0 0 8 -6 8 -20 0 -14 -8 -20 -8 -20 0 0 6 -5 8 -11
5 -13 -9 -79 -12 -79 -5 0 3 -11 5 -25 5 -14 0 -25 -4 -25 -8 0 -4 -9 -3 -20
3 -12 6 -20 7 -20 1 0 -6 -11 -6 -30 -1 -18 5 -30 5 -30 0 0 -6 -9 -6 -23 -1
-14 5 -30 5 -40 0 -11 -7 -17 -6 -17 0 0 5 -9 7 -20 4 -21 -6 -21 -2 -21 -153
0 -151 1 -173 7 -167 4 3 15 2 25 -4 13 -6 19 -6 19 0 0 7 9 7 25 1 16 -6 25
-6 25 1 0 6 7 6 20 -1 12 -6 20 -7 20 -1 0 6 11 6 30 1 18 -5 30 -5 30 0 0 6
10 6 25 0 15 -6 26 -6 30 1 4 5 12 6 18 2 16 -10 48 -10 70 0 10 5 17 4 17 -3
0 -8 6 -8 20 0 14 8 20 8 20 0 0 -7 6 -8 19 0 14 7 22 7 26 0 5 -8 11 -7 21 1
11 9 18 9 26 1 7 -7 19 -7 34 -2 13 5 24 6 24 2 0 -8 85 -6 108 3 6 2 12 1 12
-3 0 -4 13 -7 29 -7 16 0 27 3 24 7 -2 5 6 4 19 0 27 -9 70 -8 87 2 6 4 11 2
11 -4 0 -8 6 -8 20 0 14 8 20 8 20 0 0 -8 6 -8 20 0 13 7 20 7 20 1 0 -7 7 -7
23 0 18 8 22 18 22 54 0 25 -3 45 -6 45 -3 0 -3 20 1 45 4 25 4 45 0 45 -4 0
-4 18 0 40 4 22 4 43 0 45 -16 10 2 47 20 42 10 -2 23 -1 30 3 7 4 26 4 41 0
17 -5 29 -5 29 0 0 6 9 6 23 1 12 -5 32 -5 45 0 14 5 21 5 17 0 -3 -6 7 -6 25
-1 19 5 30 5 30 -1 0 -6 8 -5 20 1 15 8 20 8 20 -2 0 -9 3 -9 11 -1 12 12 18
153 7 153 -4 0 -5 6 -2 14 8 21 10 106 2 106 -4 0 -5 6 -2 14 8 21 10 106 2
106 -4 0 -5 6 -2 14 8 21 10 106 2 106 -4 0 -5 6 -2 14 8 21 10 106 2 106 -4
0 -5 6 -2 14 8 21 10 106 2 106 -4 0 -5 6 -2 14 8 21 10 106 2 106 -4 0 -5 6
-2 14 8 21 10 106 2 106 -4 0 -5 6 -2 14 8 21 10 106 2 106 -4 0 -5 6 -2 14 8
21 10 106 2 106 -4 0 -5 6 -2 14 8 21 10 106 2 106 -4 0 -5 6 -2 14 8 21 10
106 2 106 -4 0 -5 6 -2 14 8 21 10 106 2 106 -4 0 -5 6 -2 14 8 21 10 106 2
106 -4 0 -5 6 -2 14 8 21 10 106 2 106 -4 0 -5 6 -2 14 8 21 10 106 2 106 -4
0 -5 6 -2 14 8 21 10 106 2 106 -4 0 -5 6 -2 14 8 21 10 106 2 106 -4 0 -5 6
-2 14 8 21 10 106 2 106 -4 0 -5 6 -2 14 8 20 10 106 3 106 -4 0 -4 17 0 38 3
20 5 49 3 63 -3 24 -7 26 -50 27 -26 1 -68 3 -95 4 -26 2 -47 1 -47 -2z"/>
<path d="M3205 10080 c-9 -15 -10 -314 -1 -329 4 -5 2 -12 -3 -16 -7 -3 -7
-15 -1 -30 6 -15 6 -27 0 -30 -5 -3 -6 -16 -2 -28 8 -25 8 -74 -1 -83 -3 -3
-1 -19 3 -35 5 -16 5 -31 0 -34 -4 -3 -4 -21 0 -40 4 -19 5 -35 1 -35 -7 0 -6
-134 2 -147 3 -5 2 -15 -3 -22 -4 -8 -4 -27 0 -42 5 -16 5 -31 0 -34 -4 -3 -4
-21 0 -40 4 -19 5 -35 1 -35 -7 0 -6 -203 2 -224 4 -9 2 -18 -3 -21 -6 -3 -6
-15 0 -30 6 -15 6 -27 0 -30 -6 -3 -6 -15 0 -30 6 -15 6 -27 0 -30 -6 -3 -6
-15 0 -30 6 -15 6 -27 0 -30 -6 -3 -6 -15 0 -30 6 -15 6 -27 0 -30 -6 -3 -6
-15 0 -30 6 -15 6 -27 0 -30 -6 -3 -6 -15 0 -30 6 -15 6 -27 0 -30 -6 -3 -6
-15 0 -30 6 -15 6 -27 0 -30 -6 -3 -6 -15 0 -30 6 -15 6 -27 0 -30 -6 -3 -6
-15 0 -30 6 -15 6 -27 0 -30 -6 -3 -6 -15 0 -30 6 -15 6 -27 0 -30 -6 -3 -6
-15 0 -30 6 -15 6 -27 0 -30 -6 -3 -6 -15 0 -30 6 -15 6 -27 0 -30 -6 -3 -6
-15 0 -30 6 -15 6 -27 0 -30 -6 -3 -6 -15 0 -30 6 -15 6 -27 0 -30 -6 -3 -6
-15 0 -30 6 -15 6 -27 0 -30 -6 -3 -6 -15 0 -30 6 -15 6 -27 0 -30 -5 -3 -6
-15 -1 -28 5 -12 5 -32 0 -44 -5 -13 -4 -25 1 -28 6 -3 6 -15 0 -29 -5 -13 -6
-27 -3 -30 4 -4 6 -25 5 -49 -7 -148 -5 -170 13 -163 8 3 15 2 15 -2 0 -9 148
-8 157 1 3 4 12 2 19 -4 8 -7 14 -7 19 1 4 7 12 7 26 0 10 -6 19 -7 19 -2 0 5
10 8 22 8 17 -1 23 6 29 32 4 20 3 32 -4 32 -8 0 -8 3 -1 10 6 6 8 31 4 61 -4
27 -3 52 1 54 4 3 3 21 -1 40 -4 19 -5 35 -1 35 5 0 6 136 1 150 -2 3 -1 10 0
15 5 22 2 103 -4 113 -3 6 -2 13 3 17 7 3 7 15 1 30 -6 15 -6 27 0 30 6 3 6
15 0 30 -6 15 -6 27 0 30 6 3 6 15 0 30 -6 15 -6 27 0 30 6 3 6 15 0 30 -6 15
-6 27 0 30 6 3 6 15 0 30 -6 15 -6 27 0 30 6 3 6 15 0 30 -6 15 -6 27 0 30 6
3 6 15 0 30 -6 15 -6 27 0 30 6 3 6 15 0 30 -6 15 -6 27 1 30 5 4 7 11 4 16
-9 13 -12 90 -4 95 4 2 3 20 -1 39 -4 19 -5 35 -1 35 5 0 6 136 1 150 -2 3 -1
10 0 15 5 23 2 446 -3 451 -3 3 -2 17 3 30 6 14 6 26 0 29 -6 3 -6 15 0 30 6
15 6 27 0 30 -6 3 -6 15 0 30 5 13 6 26 2 29 -5 3 -5 30 -2 61 3 31 3 58 -2
61 -4 3 -3 15 2 28 5 13 6 27 3 30 -8 7 -10 76 -3 76 7 0 2 89 -5 108 -2 6 0
12 5 12 5 0 5 13 0 30 -5 17 -5 30 0 30 5 0 5 13 0 29 -6 21 -5 31 3 35 9 3 9
5 0 5 -7 1 -10 8 -7 16 5 11 -2 15 -25 16 -93 2 -112 2 -116 -3 -3 -3 -22 -2
-43 1 -20 4 -51 4 -69 0 -17 -3 -36 -2 -41 3 -6 6 -13 5 -17 -2z"/>
<path d="M9928 10073 c-10 -13 -15 -229 -5 -239 3 -3 2 -17 -3 -30 -6 -14 -6
-26 0 -29 6 -3 6 -15 0 -30 -6 -15 -6 -27 0 -30 6 -3 6 -15 0 -30 -6 -15 -6
-27 1 -30 5 -4 7 -11 3 -16 -7 -13 -9 -437 -1 -445 3 -3 2 -17 -3 -30 -6 -14
-6 -26 0 -29 6 -3 6 -15 0 -30 -6 -15 -6 -27 0 -30 6 -3 6 -15 0 -30 -6 -15
-6 -27 1 -30 5 -4 7 -11 3 -16 -7 -13 -9 -437 -1 -445 3 -3 2 -17 -3 -30 -6
-14 -6 -26 0 -29 6 -3 6 -15 0 -30 -6 -15 -6 -27 0 -30 6 -3 6 -15 0 -30 -6
-15 -6 -27 1 -30 5 -4 7 -11 3 -16 -7 -13 -9 -437 -1 -445 3 -3 2 -17 -3 -30
-6 -14 -6 -26 0 -29 6 -3 6 -15 0 -30 -6 -15 -6 -27 0 -30 6 -3 6 -15 0 -30
-5 -14 -5 -27 0 -30 5 -3 5 -18 0 -33 -4 -16 -4 -36 1 -45 6 -9 5 -18 0 -22
-7 -4 -7 -15 -1 -31 6 -14 6 -23 1 -20 -5 4 -6 -9 -1 -29 8 -34 -2 -56 -15
-35 -5 7 -11 8 -19 1 -7 -6 -17 -6 -26 -1 -8 5 -21 5 -32 -1 -12 -7 -18 -6
-18 1 0 7 -6 8 -17 2 -9 -6 -29 -6 -45 -2 -16 5 -28 5 -28 0 0 -6 -10 -6 -24
0 -15 5 -27 5 -34 -2 -6 -6 -12 -6 -16 1 -4 7 -15 7 -31 1 -15 -6 -27 -6 -30
0 -3 6 -15 6 -30 0 -14 -5 -25 -6 -25 -2 0 4 -11 7 -25 7 -14 0 -25 -3 -25 -7
0 -4 -11 -3 -24 2 -15 5 -27 5 -34 -2 -6 -6 -12 -6 -16 1 -4 7 -15 7 -31 1
-13 -5 -26 -6 -29 -2 -6 9 -48 8 -63 -1 -7 -4 -14 -3 -18 2 -4 7 -15 7 -30 1
-14 -5 -25 -6 -25 -2 0 4 -11 7 -25 7 -14 0 -25 -3 -25 -7 0 -4 -11 -3 -24 2
-15 5 -27 5 -34 -2 -6 -6 -12 -6 -16 1 -4 7 -15 7 -30 1 -13 -5 -27 -6 -30 -2
-10 9 -69 9 -88 0 -11 -6 -18 -5 -18 2 0 8 -6 8 -20 0 -14 -8 -20 -8 -20 0 0
7 -6 8 -19 0 -14 -7 -22 -7 -26 0 -5 8 -11 7 -21 -1 -11 -9 -18 -9 -26 -1 -7
7 -19 7 -34 2 -13 -5 -24 -6 -24 -2 0 8 -85 6 -107 -3 -7 -2 -13 -1 -13 3 0 4
-13 7 -29 7 -16 0 -27 -3 -24 -7 2 -5 -6 -4 -19 0 -27 9 -70 8 -87 -2 -6 -4
-11 -2 -11 4 0 8 -6 8 -20 0 -14 -8 -20 -8 -20 0 0 8 -6 8 -20 0 -14 -8 -20
-8 -20 0 0 8 -6 8 -20 0 -14 -8 -20 -8 -20 0 0 8 -6 8 -20 0 -14 -8 -20 -8
-20 0 0 8 -6 8 -20 0 -14 -8 -20 -8 -20 0 0 7 -6 8 -19 0 -14 -7 -22 -7 -26 0
-5 8 -11 7 -21 -1 -11 -9 -18 -9 -26 -1 -7 7 -19 7 -34 2 -13 -5 -24 -6 -24
-2 0 8 -85 6 -107 -3 -7 -2 -13 -1 -13 3 0 4 -13 7 -29 7 -16 0 -27 -3 -24 -7
2 -5 -6 -4 -19 0 -27 9 -70 8 -87 -2 -6 -4 -11 -2 -11 4 0 8 -6 8 -20 0 -14
-8 -20 -8 -20 0 0 8 -6 8 -20 0 -14 -8 -20 -8 -20 0 0 7 -6 7 -21 -1 -14 -7
-24 -8 -31 -1 -7 7 -19 7 -34 2 -13 -5 -24 -6 -24 -2 0 4 -11 7 -25 7 -14 0
-25 -3 -25 -7 0 -4 -10 -4 -22 1 -13 5 -33 5 -46 0 -14 -5 -21 -5 -17 0 3 6
-7 6 -25 1 -16 -5 -32 -5 -35 0 -7 11 -58 -3 -63 -18 -2 -7 1 -12 8 -12 6 0 9
-4 5 -9 -8 -14 -13 -71 -6 -71 8 0 5 -65 -4 -79 -3 -6 -1 -11 5 -11 8 0 8 -6
0 -20 -8 -14 -8 -20 0 -20 7 0 8 -6 0 -19 -7 -14 -7 -22 0 -26 8 -5 7 -12 -2
-23 -11 -13 -10 -15 10 -10 12 4 22 3 22 0 0 -9 144 -7 158 2 7 4 12 2 12 -4
0 -8 6 -8 20 0 14 8 20 8 20 0 0 -8 6 -8 20 0 14 8 20 8 20 0 0 -7 6 -7 21 1
14 7 24 8 31 1 7 -7 19 -7 34 -2 13 5 24 6 24 2 0 -4 11 -7 25 -7 14 0 25 3
25 7 0 4 11 3 24 -2 15 -5 27 -5 34 2 6 6 12 6 16 -1 4 -7 15 -7 31 -1 16 6
27 6 31 -1 4 -7 10 -6 19 1 10 8 15 8 20 0 5 -8 10 -8 20 0 9 7 15 8 19 1 5
-7 15 -7 31 -1 14 5 25 6 25 2 0 -4 11 -7 25 -7 14 0 25 3 25 7 0 4 11 3 24
-2 15 -5 27 -5 34 2 6 6 12 6 16 -1 4 -7 15 -7 31 -1 16 6 27 6 31 -1 4 -7 10
-6 19 1 10 8 15 8 20 0 5 -8 10 -8 20 0 9 7 15 8 19 1 5 -7 15 -7 31 -1 14 5
25 6 25 2 0 -4 11 -7 25 -7 14 0 25 3 25 7 0 4 11 3 24 -2 15 -5 27 -5 34 2 6
6 12 6 16 -1 4 -7 15 -7 31 -1 16 6 27 6 31 -1 4 -7 10 -6 19 1 10 8 15 8 20
0 5 -8 10 -8 20 0 9 7 15 8 19 1 5 -7 15 -7 31 -1 14 5 25 6 25 2 0 -4 11 -7
25 -7 14 0 25 3 25 7 0 4 11 3 24 -2 15 -5 27 -5 34 2 6 6 12 6 16 -1 4 -7 15
-7 31 -1 16 6 27 6 31 -1 4 -7 10 -6 19 1 9 7 15 7 19 1 6 -10 37 -8 56 4 6 3
10 1 10 -5 0 -8 6 -8 20 0 14 8 20 8 20 0 0 -7 6 -8 19 0 14 7 22 7 26 0 5 -8
11 -7 21 1 11 9 18 9 26 1 7 -7 19 -7 34 -2 13 5 24 6 24 2 0 -8 85 -6 108 3
6 2 12 1 12 -3 0 -4 13 -7 29 -7 16 0 27 3 24 7 -2 5 6 4 19 0 27 -9 70 -8 87
2 6 4 11 2 11 -4 0 -8 6 -8 20 0 14 8 20 8 20 0 0 -8 6 -8 20 0 14 8 20 8 20
0 0 -6 5 -8 11 -5 13 9 79 12 79 5 0 -3 11 -5 25 -5 14 0 25 4 25 8 0 4 9 3
20 -3 12 -6 20 -7 20 -1 0 6 11 6 30 1 18 -5 30 -5 30 0 0 5 10 6 23 2 23 -8
85 -7 94 1 7 8 9 267 2 270 -4 1 -3 13 2 26 7 17 15 22 29 18 11 -3 20 -1 20
4 0 6 7 6 18 0 11 -6 24 -6 35 0 11 7 17 6 17 -1 0 -8 6 -7 21 1 14 7 24 8 31
1 7 -7 19 -7 34 -2 13 5 24 6 24 2 0 -11 70 -6 82 6 11 11 14 64 4 80 -3 6 -2
13 3 16 5 3 6 21 1 40 -4 19 -4 40 0 46 4 7 4 26 0 41 -5 16 -5 31 0 34 4 3 4
21 0 40 -4 19 -5 35 -1 35 7 0 6 134 -2 147 -3 5 -2 15 3 22 4 8 4 27 0 42 -5
16 -5 31 0 34 4 3 4 21 0 40 -4 19 -5 35 -1 35 7 0 6 134 -2 147 -3 5 -2 15 3
22 4 8 4 27 0 42 -5 16 -5 31 0 34 4 3 4 21 0 40 -4 19 -5 35 -1 35 7 0 6 134
-2 147 -3 5 -2 15 3 22 4 8 4 27 0 42 -5 16 -5 31 0 34 4 3 4 21 0 40 -4 19
-5 35 -1 35 7 0 6 134 -2 147 -3 5 -2 15 3 22 4 8 4 27 0 42 -5 16 -5 31 0 34
4 3 4 21 0 40 -4 19 -5 35 -1 35 7 0 6 134 -2 147 -3 5 -2 15 3 22 4 8 4 27 0
42 -5 16 -5 31 0 34 4 3 4 21 0 40 -4 19 -5 35 -1 35 7 0 6 134 -2 147 -3 5
-2 15 3 22 4 8 4 27 0 42 -5 16 -5 31 0 34 4 3 4 21 0 40 -4 19 -5 35 -1 35 5
0 6 136 1 150 -2 3 -1 10 0 15 5 26 4 95 -2 95 -3 0 -4 9 -1 21 5 16 1 20 -13
19 -10 -1 -21 -2 -24 -1 -3 1 -63 3 -133 4 -91 1 -132 -2 -139 -10z"/>
<path d="M4190 8990 c0 -329 3 -420 13 -421 6 -1 23 -2 37 -2 24 -2 25 -4 25
-74 0 -52 3 -73 12 -74 7 -1 23 -2 36 -3 20 -1 22 -7 27 -76 l5 -76 33 2 c34
1 35 1 38 -66 4 -96 -10 -86 122 -85 l117 0 1 68 c2 74 5 81 37 83 12 1 27 2
32 3 6 0 10 31 9 71 0 43 4 71 10 72 6 0 22 1 36 2 27 1 25 -5 29 127 1 23 5
26 31 25 29 -1 30 -1 29 -56 -2 -103 -3 -100 36 -95 23 3 35 1 36 -8 1 -6 2
-41 3 -77 l1 -65 35 0 35 0 5 -75 5 -75 115 0 115 0 5 75 5 75 33 -1 c17 0 33
2 33 5 1 3 3 35 4 71 1 36 3 69 4 73 0 5 17 6 36 3 l35 -6 0 79 c0 74 1 78 23
78 57 1 53 -33 52 421 l0 417 -120 3 -120 3 0 -376 0 -375 -25 -1 c-14 -1 -31
-1 -37 0 -10 1 -13 -19 -13 -74 0 -41 -3 -75 -7 -76 -5 0 -18 -2 -30 -5 -21
-4 -22 0 -25 74 l-3 77 -32 0 c-18 0 -34 2 -34 5 -1 3 -3 34 -4 70 -4 86 -3
82 -22 79 -44 -4 -55 1 -50 21 3 11 2 20 -1 20 -4 0 -7 45 -7 100 0 55 4 100
8 100 4 0 3 8 -2 19 -6 10 -8 20 -6 23 4 4 5 36 4 161 0 58 0 115 0 135 1 22
0 23 -121 20 l-121 -3 0 -297 c0 -278 -1 -297 -18 -301 -10 -3 -20 0 -23 7 -3
8 -5 7 -5 -1 -1 -7 -7 -10 -15 -7 -11 4 -14 -8 -14 -58 0 -35 -1 -70 -1 -78
-1 -11 -11 -15 -36 -14 -38 2 -36 7 -38 -88 -1 -48 -4 -54 -26 -60 -14 -4 -27
-5 -29 -3 -3 2 -5 37 -6 77 l-1 73 -37 3 -37 3 1 372 1 372 -122 3 -121 3 0
-421z"/>
<path d="M7058 8802 c-10 -2 -18 -10 -19 -18 -3 -47 -2 -72 4 -87 3 -9 2 -17
-3 -17 -5 0 -5 -13 0 -30 5 -16 6 -30 2 -30 -4 0 -7 -11 -7 -25 0 -14 3 -25 7
-25 4 0 3 -11 -2 -25 -6 -15 -6 -26 0 -30 6 -4 7 -13 1 -23 -6 -11 -6 -24 0
-35 6 -9 6 -17 2 -17 -4 0 -8 -11 -8 -25 0 -14 3 -25 7 -25 4 0 3 -11 -2 -24
-5 -15 -5 -27 3 -35 8 -8 8 -11 -2 -11 -10 0 -11 -3 -2 -14 8 -10 9 -16 1 -21
-6 -4 -7 -12 -1 -24 6 -10 6 -23 1 -31 -5 -8 -4 -22 1 -32 5 -10 6 -18 2 -18
-4 0 -8 -25 -8 -55 0 -30 4 -55 8 -55 4 0 3 -8 -2 -18 -5 -10 -6 -24 -1 -31 4
-8 4 -27 0 -42 -5 -18 -5 -29 1 -29 6 0 6 -6 0 -18 -6 -11 -6 -24 0 -35 6 -9
6 -17 2 -17 -4 0 -8 -13 -8 -29 0 -16 3 -27 7 -24 5 2 4 -7 -2 -21 -5 -15 -6
-28 0 -31 6 -3 6 -15 0 -30 -6 -15 -6 -27 0 -30 6 -4 7 -13 1 -23 -6 -11 -6
-24 0 -35 6 -9 6 -17 2 -17 -4 0 -8 -11 -8 -25 0 -14 4 -25 8 -25 4 0 4 -8 -1
-17 -14 -26 -1 -50 26 -48 12 1 22 -1 22 -4 0 -3 11 -6 25 -6 14 0 25 4 25 8
0 4 9 3 20 -3 12 -6 20 -7 20 -1 0 6 11 6 30 1 19 -5 30 -5 30 1 0 6 7 6 19 0
10 -6 21 -7 25 -4 4 4 22 6 41 5 18 -1 36 2 40 8 3 5 1 10 -5 10 -7 0 -8 6 -1
18 7 13 7 22 0 29 -8 8 -8 13 0 17 7 5 7 15 1 31 -5 14 -6 25 -2 25 4 0 7 11
7 25 0 14 -4 25 -8 25 -4 0 -3 8 2 18 6 11 6 24 0 34 -6 10 -6 19 0 23 7 4 7
15 1 30 -5 14 -6 25 -2 25 4 0 7 11 7 25 0 14 -3 25 -7 25 -4 0 -3 14 2 30 5
17 5 30 2 30 -9 0 -7 64 3 79 3 6 1 11 -5 11 -8 0 -8 6 0 20 8 14 8 20 0 20
-8 0 -8 6 0 20 8 14 8 20 0 20 -8 0 -8 6 0 20 8 14 8 20 0 20 -8 0 -8 6 0 20
8 14 8 20 0 20 -8 0 -8 6 0 20 8 14 8 20 0 20 -8 0 -8 6 0 20 8 14 8 20 0 20
-8 0 -8 6 0 20 8 14 8 20 0 20 -8 0 -8 6 0 20 8 14 8 20 0 20 -8 0 -8 6 0 20
8 14 8 20 0 20 -8 0 -8 6 0 20 8 14 8 20 0 20 -8 0 -8 6 0 20 8 14 8 20 0 20
-8 0 -8 6 0 20 8 14 8 20 0 20 -8 0 -8 6 0 20 8 14 8 20 0 20 -8 0 -8 6 0 20
8 14 8 20 0 20 -8 0 -8 6 0 20 8 14 8 26 0 40 -6 11 -7 20 -2 20 9 0 8 53 -3
69 -3 6 -1 11 6 11 8 0 8 4 -1 15 -7 8 -9 16 -4 16 5 1 -4 4 -21 8 -16 4 -45
4 -62 0 -18 -4 -33 -4 -33 0 0 8 -108 6 -116 -2 -3 -3 -16 -2 -28 2 -11 4 -29
6 -38 3z"/>
<path d="M1605 6561 c-3 -6 -6 -79 -6 -161 0 -139 -1 -151 -19 -160 -14 -8
-20 -8 -20 0 0 8 -6 8 -20 0 -14 -8 -20 -8 -20 0 0 7 -6 8 -19 0 -14 -7 -22
-7 -26 0 -5 8 -11 7 -20 0 -8 -7 -20 -8 -26 -4 -17 10 -69 11 -69 1 0 -4 -8
-3 -18 2 -10 6 -24 6 -32 1 -8 -5 -18 -6 -22 -4 -4 3 -8 -14 -8 -38 -1 -135
-1 -815 1 -823 1 -5 1 -14 0 -18 -2 -13 -3 -210 0 -222 1 -5 1 -14 0 -18 -2
-13 -3 -210 0 -222 1 -5 1 -14 0 -18 -2 -13 -3 -210 0 -222 1 -5 1 -14 -1 -20
-1 -7 0 -648 1 -795 1 -8 0 -20 -1 -25 -1 -6 -2 -38 -1 -72 1 -60 2 -62 29
-62 15 0 48 -2 73 -2 25 -1 50 1 56 4 6 4 13 3 17 0 8 -8 102 -7 115 1 5 3 14
-1 21 -9 12 -14 13 -76 7 -262 -2 -50 -1 -53 23 -53 26 1 213 0 315 -1 148 -1
445 1 493 3 28 2 52 1 52 -2 0 -3 24 -4 52 -2 29 2 59 3 66 3 6 0 63 -1 125
-1 61 0 139 0 172 -1 148 -1 445 1 493 3 28 2 52 1 52 -2 0 -3 24 -4 52 -2 29
2 59 3 66 3 6 0 63 -1 125 -1 116 0 153 0 351 -2 100 0 120 2 128 16 6 10 5
16 -2 16 -6 0 -8 5 -5 11 9 13 11 147 2 155 -3 3 -2 16 3 29 5 13 6 26 2 29
-10 10 -11 36 -1 36 4 0 6 6 3 14 -6 16 3 17 104 16 9 0 39 0 66 0 27 0 51 -2
53 -4 3 -2 18 0 34 4 17 5 31 5 35 -1 8 -13 26 1 20 16 -2 7 -2 16 1 19 9 9 9
66 1 66 -4 0 -4 10 0 23 9 26 8 99 -1 113 -3 5 -2 16 3 24 5 8 5 21 0 31 -5 9
-7 19 -4 21 3 3 -7 8 -21 10 -14 3 -25 2 -25 -3 0 -4 -13 -4 -29 1 -16 4 -32
6 -35 3 -7 -7 -105 -8 -112 0 -3 3 -19 1 -35 -3 -17 -5 -29 -5 -29 0 0 5 -7 7
-16 3 -8 -3 -13 -11 -10 -18 2 -7 2 -16 -1 -19 -9 -9 -9 -66 0 -66 5 0 5 -5 1
-11 -4 -7 -6 -37 -5 -68 2 -59 2 -73 0 -93 -1 -7 0 -20 2 -28 3 -12 -11 -16
-76 -18 -44 -1 -91 -2 -105 -2 -122 5 -220 4 -220 -2 0 -4 -6 -5 -14 -2 -20 8
-106 10 -106 2 0 -3 -8 -4 -17 -2 -31 8 -183 9 -183 2 0 -4 -6 -5 -14 -2 -23
9 -106 10 -106 1 0 -5 -4 -6 -8 -3 -7 4 -62 7 -112 6 -8 -1 -44 -1 -80 -1 -36
1 -72 1 -80 1 -30 -1 -215 -1 -232 0 -42 0 -56 0 -101 0 -27 0 -53 2 -58 5 -5
4 -9 2 -9 -3 0 -6 -14 -7 -32 -3 -18 4 -48 4 -65 0 -18 -3 -33 -4 -33 0 0 3
-35 5 -77 4 -43 -1 -89 -3 -103 -3 -14 0 -36 -1 -50 -1 -14 -1 -32 -1 -40 -1
-8 1 -46 1 -85 1 -38 0 -81 1 -95 1 -120 5 -220 4 -220 -2 0 -4 -6 -5 -14 -2
-20 8 -106 10 -106 2 0 -3 -8 -4 -17 -2 -10 3 -36 6 -58 7 l-40 2 -1 58 c-1
31 -4 63 -7 71 -3 8 -3 17 0 20 9 8 9 106 0 106 -5 0 -6 4 -3 9 5 7 7 59 5
111 0 8 0 215 0 460 1 533 0 476 1 526 1 23 0 46 -1 50 -1 5 -1 11 0 14 7 17
5 110 -2 110 -5 0 -6 4 -3 9 5 7 7 61 5 111 0 8 0 161 0 340 0 179 0 334 0
345 0 11 0 55 1 98 0 43 -2 82 -5 86 -3 5 3 17 12 27 11 10 18 13 21 5 3 -8 9
-8 23 -1 10 6 19 7 19 3 0 -4 11 -8 25 -8 14 0 25 4 25 8 0 4 8 4 17 -2 11 -6
24 -6 35 0 10 6 19 5 23 -1 3 -6 15 -6 30 0 13 5 26 6 29 1 5 -7 80 -5 104 4
6 2 12 1 12 -3 0 -4 11 -7 25 -7 14 0 25 4 25 8 0 4 9 3 20 -3 12 -6 20 -7 20
-1 0 6 11 6 30 1 19 -5 30 -5 30 1 0 6 6 6 18 0 11 -6 24 -6 34 0 9 5 19 5 22
1 3 -5 26 -6 51 -2 25 4 45 4 45 1 0 -3 11 -6 25 -6 14 0 25 4 25 8 0 4 9 3
20 -3 12 -6 20 -7 20 -1 0 6 11 6 30 1 19 -5 30 -5 30 1 0 6 6 6 18 0 11 -6
24 -6 34 0 9 5 19 5 22 1 3 -5 26 -6 51 -2 25 4 45 4 45 1 0 -3 11 -6 25 -6
14 0 25 4 25 8 0 4 9 3 20 -3 12 -6 20 -7 20 -1 0 6 11 6 30 1 19 -5 30 -5 30
1 0 6 6 6 18 0 11 -6 24 -6 34 0 9 5 19 5 22 1 3 -5 26 -6 51 -2 25 4 45 4 45
1 0 -3 11 -6 25 -6 14 0 25 4 25 8 0 4 9 3 20 -3 12 -6 20 -7 20 -1 0 6 11 6
30 1 19 -5 30 -5 30 1 0 6 6 6 18 0 11 -6 24 -6 34 0 10 6 19 6 23 0 3 -7 15
-7 30 -1 15 6 27 6 30 0 3 -6 16 -5 31 0 14 6 23 7 21 2 -3 -4 8 -7 24 -7 16
0 29 4 29 8 0 4 8 3 18 -2 11 -6 24 -6 34 0 10 6 19 6 23 0 3 -7 15 -7 29 -1
13 5 27 6 30 2 10 -9 69 -9 89 0 10 6 17 5 17 -2 0 -8 6 -8 20 0 14 8 20 8 20
0 0 -7 6 -8 19 0 14 7 22 7 26 0 5 -8 11 -7 21 1 11 9 18 9 26 1 7 -7 19 -7
34 -2 13 5 24 6 24 2 0 -4 11 -7 25 -7 14 0 25 2 25 5 0 3 16 5 35 5 19 0 35
-2 35 -5 0 -3 11 -5 25 -5 14 0 25 3 25 7 0 4 10 4 23 0 26 -9 69 -8 86 2 6 4
11 2 11 -4 0 -7 6 -8 19 0 14 7 22 7 26 0 5 -8 11 -8 20 0 10 8 15 8 20 0 10
-17 36 9 34 34 0 12 0 23 1 26 7 20 7 40 -1 40 -6 0 -8 4 -5 9 3 4 5 32 6 62
0 30 0 62 0 72 0 89 1 88 -21 77 -13 -8 -19 -7 -19 0 0 8 -6 8 -20 0 -14 -8
-20 -8 -20 0 0 7 -6 8 -19 0 -14 -7 -22 -7 -26 0 -5 8 -11 7 -21 -1 -11 -9
-18 -9 -26 -1 -7 7 -19 7 -34 2 -13 -5 -24 -6 -24 -2 0 4 -11 7 -25 7 -14 0
-25 -2 -25 -5 0 -3 -16 -5 -35 -5 -19 0 -35 2 -35 5 0 3 -11 5 -25 5 -14 0
-25 -3 -25 -7 0 -4 -10 -4 -22 0 -27 9 -70 8 -87 -2 -6 -4 -11 -2 -11 4 0 8
-6 8 -20 0 -14 -8 -20 -8 -20 0 0 8 -6 8 -20 0 -14 -8 -20 -8 -20 0 0 7 -6 7
-21 -1 -14 -7 -24 -8 -31 -1 -7 7 -19 7 -34 2 -13 -5 -24 -6 -24 -2 0 4 -11 7
-25 7 -14 0 -25 -4 -25 -8 0 -4 -8 -4 -17 2 -10 5 -26 5 -40 0 -14 -5 -23 -5
-23 1 0 6 -9 6 -25 0 -13 -5 -26 -6 -29 -1 -5 7 -80 5 -103 -4 -7 -2 -13 -1
-13 3 0 4 -11 7 -25 7 -14 0 -25 -4 -25 -8 0 -4 -9 -3 -20 3 -12 6 -20 7 -20
1 0 -6 -11 -6 -30 -1 -19 5 -30 5 -30 -1 0 -6 -6 -6 -18 0 -11 6 -24 6 -34 0
-9 -5 -19 -5 -22 -1 -3 5 -26 6 -51 2 -25 -4 -45 -4 -45 -1 0 3 -11 6 -25 6
-14 0 -25 -4 -25 -8 0 -4 -9 -3 -20 3 -12 6 -20 7 -20 1 0 -6 -11 -6 -30 -1
-19 5 -30 5 -30 -1 0 -6 -6 -6 -18 0 -11 6 -24 6 -34 0 -9 -5 -19 -5 -22 -1
-3 5 -26 6 -51 2 -25 -4 -45 -4 -45 -1 0 3 -11 6 -25 6 -14 0 -25 -4 -25 -8 0
-4 -9 -3 -20 3 -12 6 -20 7 -20 1 0 -6 -11 -6 -30 -1 -19 5 -30 5 -30 -1 0 -6
-6 -6 -18 0 -11 6 -24 6 -34 0 -9 -5 -19 -5 -22 -1 -3 5 -26 6 -51 2 -25 -4
-45 -4 -45 -1 0 3 -11 6 -25 6 -14 0 -25 -4 -25 -8 0 -4 -9 -3 -20 3 -12 6
-20 7 -20 1 0 -6 -11 -6 -30 -1 -19 5 -30 5 -30 -1 0 -6 -6 -6 -18 0 -11 6
-24 6 -34 0 -10 -6 -19 -6 -23 0 -3 7 -15 7 -30 1 -15 -6 -27 -6 -30 0 -3 6
-15 6 -30 0 -14 -5 -25 -6 -25 -2 0 4 -11 7 -25 7 -14 0 -25 -4 -25 -8 0 -4
-8 -3 -18 2 -11 6 -24 6 -34 0 -10 -6 -19 -6 -23 0 -3 7 -15 7 -30 1 -16 -6
-27 -6 -31 1 -4 7 -10 7 -18 0 -9 -7 -16 -7 -23 0 -8 8 -13 7 -18 0z"/>
<path d="M5459 6558 c-20 -16 -32 -48 -18 -48 6 0 6 -7 -1 -20 -7 -13 -7 -20
-1 -20 7 0 7 -8 1 -24 -5 -15 -5 -27 2 -34 7 -7 6 -17 -1 -31 -8 -15 -8 -21
-1 -21 8 0 8 -6 0 -20 -8 -14 -8 -20 0 -20 7 0 8 -6 0 -19 -7 -14 -7 -22 1
-26 7 -5 4 -14 -7 -26 -11 -12 -21 -16 -27 -10 -6 6 -19 6 -33 1 -13 -5 -24
-6 -24 -2 0 9 -83 7 -99 -2 -6 -4 -11 -2 -11 4 0 8 -6 8 -20 0 -14 -8 -20 -8
-20 0 0 8 -6 8 -20 0 -14 -8 -20 -8 -20 0 0 18 -37 -7 -43 -30 -3 -11 -1 -20
3 -20 5 0 5 -14 0 -30 -5 -19 -5 -28 1 -25 5 4 5 -4 -1 -19 -6 -17 -6 -27 1
-32 8 -4 8 -9 0 -17 -6 -6 -7 -16 -1 -28 6 -10 7 -20 2 -23 -8 -5 -7 -80 2
-103 3 -7 2 -13 -2 -13 -9 0 -8 -42 1 -57 4 -7 3 -14 -3 -18 -7 -4 -7 -12 0
-25 6 -10 7 -21 2 -24 -8 -5 -7 -80 2 -103 3 -7 2 -13 -2 -13 -9 0 -8 -42 1
-57 4 -7 3 -14 -3 -18 -7 -4 -7 -12 0 -25 6 -10 7 -21 2 -24 -8 -5 -7 -80 2
-103 3 -7 2 -13 -2 -13 -9 0 -8 -42 1 -57 4 -7 3 -14 -3 -18 -7 -4 -7 -12 0
-25 6 -10 7 -21 2 -24 -8 -5 -7 -80 2 -103 3 -7 2 -13 -2 -13 -9 0 -8 -42 1
-57 4 -7 3 -14 -3 -18 -7 -4 -7 -12 0 -25 6 -10 7 -21 2 -24 -8 -5 -7 -80 2
-103 3 -7 2 -13 -2 -13 -9 0 -8 -42 1 -57 4 -7 3 -14 -3 -18 -7 -4 -7 -12 0
-25 6 -10 7 -21 2 -24 -8 -5 -7 -80 2 -103 3 -7 2 -13 -2 -13 -9 0 -8 -42 1
-57 4 -7 3 -14 -3 -18 -7 -4 -7 -12 0 -25 6 -10 7 -21 2 -24 -8 -5 -7 -80 2
-103 3 -7 2 -13 -2 -13 -9 0 -8 -42 1 -57 4 -7 3 -14 -3 -18 -7 -4 -7 -12 0
-25 6 -10 7 -21 2 -24 -8 -5 -7 -80 2 -103 3 -7 2 -13 -2 -13 -9 0 -8 -42 1
-57 4 -7 3 -14 -3 -18 -7 -4 -7 -12 0 -25 6 -10 7 -21 2 -24 -8 -5 -7 -79 2
-102 2 -6 2 -15 -1 -18 -9 -9 -9 -65 -1 -59 5 2 4 -7 -2 -21 -6 -16 -6 -26 0
-26 6 0 6 -9 1 -23 -5 -14 -5 -30 0 -40 7 -11 6 -17 0 -17 -7 0 -7 -8 -2 -23
5 -13 5 -30 0 -39 -5 -9 -4 -22 4 -33 10 -13 29 -18 85 -19 40 0 72 3 72 7 0
5 5 5 11 1 6 -3 42 -6 79 -6 66 0 68 0 65 -24 -1 -13 1 -24 6 -24 4 0 4 -13
-1 -30 -5 -16 -5 -30 -2 -30 9 0 7 -64 -3 -79 -3 -6 -1 -11 5 -11 8 0 8 -6 0
-20 -8 -14 -8 -20 0 -20 7 0 8 -6 0 -19 -7 -14 -7 -22 0 -26 8 -5 7 -11 -1
-21 -10 -12 -7 -14 17 -14 28 1 191 0 319 -1 148 -1 445 1 493 3 28 2 52 1 52
-2 0 -3 24 -4 52 -2 29 2 59 3 66 3 6 0 63 -1 125 -1 61 0 139 0 172 -1 148
-1 445 1 493 3 28 2 52 1 52 -2 0 -3 24 -4 52 -2 29 2 59 3 66 3 6 0 63 -1
125 -1 116 0 153 0 351 -2 100 0 120 2 128 16 6 10 5 16 -2 16 -6 0 -8 5 -4
11 4 7 7 40 7 74 0 34 -3 67 -7 74 -4 6 -3 11 1 11 10 0 8 63 -2 79 -3 6 0 11
7 11 9 0 8 5 -4 16 -11 12 -33 16 -84 15 -38 -1 -80 -1 -94 -1 -120 5 -220 4
-220 -2 0 -4 -6 -5 -14 -2 -20 8 -106 10 -106 2 0 -3 -8 -4 -17 -2 -31 8 -183
9 -183 2 0 -4 -6 -5 -14 -2 -23 9 -106 10 -106 1 0 -5 -4 -6 -8 -3 -7 4 -62 7
-112 6 -8 -1 -44 -1 -80 -1 -36 1 -72 1 -80 1 -30 -1 -215 -1 -232 0 -42 0
-56 0 -101 0 -27 0 -53 2 -58 5 -5 4 -9 2 -9 -3 0 -6 -14 -7 -32 -3 -18 4 -48
4 -65 0 -18 -3 -33 -4 -33 0 0 3 -35 5 -77 4 -43 -1 -89 -3 -103 -3 -14 0 -36
-1 -50 -1 -14 -1 -32 -1 -40 -1 -8 1 -46 1 -85 1 -38 0 -81 1 -95 1 -120 5
-220 4 -220 -2 0 -4 -6 -5 -14 -2 -18 7 -106 10 -106 4 0 -3 -20 -5 -45 -5
-25 0 -45 4 -45 8 0 5 -4 6 -9 2 -6 -3 -15 4 -21 15 -8 15 -8 20 2 20 9 0 9 3
0 12 -7 7 -8 17 -2 29 7 12 6 20 0 24 -6 4 -7 11 -4 17 10 16 11 68 1 68 -4 0
-3 8 2 18 6 11 6 24 0 35 -6 9 -6 17 -2 17 4 0 8 25 8 55 0 30 -3 55 -7 55 -4
0 -3 14 2 30 5 17 5 30 2 30 -9 0 -7 64 3 79 3 6 1 11 -5 11 -8 0 -8 6 0 20 8
14 8 20 0 20 -8 0 -8 6 0 20 8 14 8 20 0 20 -8 0 -8 6 0 20 8 14 8 20 0 20 -8
0 -8 6 0 20 8 14 8 20 0 20 -8 0 -8 6 0 20 8 14 8 20 0 20 -8 0 -8 6 0 20 8
14 8 20 0 20 -7 0 -8 6 -2 18 9 19 8 53 -2 70 -3 6 -2 13 3 17 7 4 7 15 1 30
-5 14 -6 25 -2 25 4 0 7 11 7 25 0 14 -3 25 -7 25 -4 0 -3 11 2 24 5 15 5 27
-2 34 -6 6 -6 12 1 16 7 5 7 15 1 31 -5 14 -6 25 -2 25 4 0 7 11 7 25 0 14 -3
25 -7 25 -4 0 -3 11 2 25 6 15 6 26 0 30 -6 4 -7 13 -1 24 6 10 6 23 1 31 -5
8 -5 21 0 30 5 9 4 23 -1 33 -6 9 -6 17 -2 17 4 0 8 11 8 25 0 14 -2 25 -5 25
-7 0 -4 66 5 79 3 6 1 11 -5 11 -8 0 -8 6 0 20 8 14 8 20 0 20 -8 0 -8 6 0 20
8 14 8 20 0 20 -8 0 -8 6 0 20 8 14 8 20 0 20 -8 0 -8 6 0 20 8 14 8 20 0 20
-8 0 -8 6 0 20 8 14 8 20 0 20 -8 0 -8 6 0 20 8 14 8 20 0 20 -6 0 -8 5 -5 11
10 15 12 79 3 79 -3 0 -3 14 2 30 5 19 5 30 -1 30 -6 0 -6 6 0 18 6 11 6 24 0
35 -6 9 -6 17 -2 17 4 0 8 25 8 55 0 30 -3 55 -7 55 -4 0 -3 14 2 30 5 19 5
30 -1 30 -6 0 -6 6 0 18 6 11 6 24 0 35 -6 9 -6 17 -2 17 4 0 8 25 8 55 0 30
-3 55 -7 55 -4 0 -3 14 2 30 5 17 5 30 2 30 -9 0 -7 64 3 79 3 6 1 11 -5 11
-8 0 -8 6 0 20 8 14 8 20 0 20 -7 0 -8 6 -1 18 7 12 7 22 0 29 -6 6 -3 16 10
27 12 11 21 13 25 7 5 -7 15 -7 31 -1 14 5 25 6 25 2 0 -9 83 -8 98 2 7 4 12
2 12 -4 0 -8 6 -8 20 0 14 8 20 8 20 0 0 -8 6 -8 20 0 14 8 20 8 20 0 0 -8 6
-8 20 0 14 8 20 8 20 0 0 -8 6 -8 20 0 14 8 20 8 20 0 0 -8 6 -8 20 0 14 8 20
8 20 0 0 -7 6 -8 19 0 14 7 22 7 26 0 5 -8 11 -7 21 1 11 9 18 9 26 1 7 -7 19
-7 34 -2 13 5 24 6 24 2 0 -4 11 -7 25 -7 14 0 25 2 25 5 0 3 16 5 35 5 19 0
35 -2 35 -5 0 -3 11 -5 25 -5 14 0 25 3 25 7 0 4 10 4 23 0 26 -9 69 -8 86 2
6 4 11 2 11 -4 0 -8 6 -8 20 0 14 8 20 8 20 0 0 -8 6 -8 20 0 14 8 20 8 20 0
0 -8 6 -8 20 0 14 8 20 8 20 0 0 -8 6 -8 20 0 14 8 20 8 20 0 0 -8 6 -8 20 0
14 8 20 8 20 0 0 -7 6 -8 19 0 14 7 22 7 26 0 5 -8 11 -7 21 1 11 9 18 9 26 1
7 -7 19 -7 34 -2 15 6 24 6 24 0 0 -6 10 -6 26 0 14 6 23 6 20 1 -4 -5 3 -7
14 -4 23 6 48 43 30 43 -8 0 -8 6 0 20 8 14 8 20 0 20 -8 0 -8 6 0 20 8 14 8
20 0 20 -7 0 -8 7 -3 18 10 21 10 53 0 69 -4 6 -3 14 2 18 7 4 7 15 1 30 -7
17 -6 25 1 25 8 0 8 4 0 13 -6 8 -8 16 -5 19 3 3 -9 8 -26 10 -16 3 -30 1 -30
-3 0 -4 -13 -4 -30 1 -19 5 -30 5 -30 -1 0 -6 -6 -7 -17 0 -10 5 -26 5 -40 0
-14 -5 -23 -5 -23 1 0 6 -9 6 -25 0 -13 -5 -26 -6 -29 -2 -6 9 -48 8 -63 -1
-7 -4 -14 -3 -18 2 -4 7 -15 7 -30 1 -14 -5 -25 -6 -25 -2 0 4 -11 7 -25 7
-14 0 -25 -4 -25 -8 0 -4 -8 -4 -17 2 -10 5 -26 5 -40 0 -14 -5 -23 -5 -23 1
0 6 -9 6 -24 0 -13 -5 -27 -6 -30 -2 -10 9 -69 9 -88 0 -11 -6 -18 -5 -18 2 0
8 -6 8 -20 0 -14 -8 -20 -8 -20 0 0 7 -6 8 -19 0 -14 -7 -22 -7 -26 0 -5 8
-11 7 -21 -1 -11 -9 -18 -9 -26 -1 -7 7 -19 7 -34 2 -13 -5 -24 -6 -24 -2 0 4
-11 7 -25 7 -14 0 -25 -2 -25 -5 0 -3 -16 -5 -35 -5 -19 0 -35 2 -35 5 0 3
-11 5 -25 5 -14 0 -25 -3 -25 -7 0 -4 -10 -4 -22 0 -27 9 -70 8 -87 -2 -6 -4
-11 -2 -11 4 0 8 -6 8 -20 0 -14 -8 -20 -8 -20 0 0 7 -6 8 -19 0 -13 -7 -20
-7 -23 0 -2 7 -9 6 -19 -2z"/>
<path d="M7363 6555 c-8 -14 -8 -26 -2 -38 6 -9 6 -17 2 -17 -4 0 -8 -11 -8
-25 0 -14 2 -25 5 -25 7 0 4 -66 -5 -79 -3 -6 -1 -11 5 -11 8 0 8 -6 0 -20 -8
-14 -8 -20 0 -20 7 0 8 -6 0 -19 -7 -14 -7 -22 0 -26 8 -5 7 -12 -2 -23 -11
-13 -10 -15 10 -10 12 4 22 3 22 0 0 -4 13 -7 29 -7 16 0 27 3 24 7 -2 5 6 4
19 0 27 -9 70 -8 87 2 6 4 11 2 11 -4 0 -8 6 -8 20 0 14 8 20 8 20 0 0 -8 6
-8 20 0 14 8 20 8 20 0 0 -7 6 -7 21 1 14 7 24 8 31 1 7 -7 19 -7 35 -1 13 5
22 6 20 1 -3 -4 8 -7 24 -7 16 0 29 4 29 8 0 5 5 5 12 1 14 -9 103 -8 117 0 5
4 12 2 15 -2 8 -13 54 -2 60 14 3 8 1 14 -5 14 -6 0 -7 5 -4 11 9 14 13 69 5
69 -7 0 -4 66 5 79 3 6 1 11 -5 11 -8 0 -8 6 0 20 8 14 8 20 0 20 -7 0 -8 6 0
19 7 14 7 22 0 26 -8 5 -7 12 2 23 11 13 10 15 -9 10 -13 -4 -23 -3 -23 0 0 4
-13 7 -29 7 -16 0 -27 -3 -24 -7 2 -5 -6 -4 -19 0 -27 9 -70 8 -87 -2 -6 -4
-11 -2 -11 4 0 8 -6 8 -20 0 -14 -8 -20 -8 -20 0 0 8 -6 8 -20 0 -14 -8 -20
-8 -20 0 0 7 -6 7 -21 -1 -14 -7 -24 -8 -31 -1 -7 7 -19 7 -34 2 -13 -5 -24
-6 -24 -2 0 4 -11 7 -25 7 -14 0 -25 -4 -25 -8 0 -4 -8 -3 -18 2 -11 6 -24 6
-34 0 -10 -6 -19 -6 -23 0 -3 7 -15 7 -30 1 -15 -6 -27 -6 -30 0 -4 7 -13 6
-25 0 -13 -7 -20 -6 -23 3 -2 7 -8 5 -14 -8z"/>
<path d="M9310 6561 c0 -5 -8 -7 -17 -5 -15 4 -18 -1 -17 -31 1 -19 4 -38 7
-41 4 -4 2 -14 -3 -23 -5 -10 -5 -23 0 -31 4 -7 6 -18 4 -24 -8 -22 -9 -106
-1 -106 4 0 4 -8 -1 -17 -11 -21 -5 -46 9 -37 5 3 9 0 9 -7 0 -9 3 -9 14 0 9
8 16 8 20 2 5 -7 15 -7 32 -1 17 7 23 7 19 0 -4 -7 3 -7 19 0 14 5 26 6 26 2
0 -4 11 -7 25 -7 14 0 25 4 25 8 0 4 8 3 18 -2 11 -6 24 -6 34 0 10 6 19 6 23
0 3 -7 15 -7 30 -1 15 6 27 6 30 0 3 -6 16 -5 31 0 14 6 23 7 21 2 -3 -4 8 -7
24 -7 16 0 29 4 29 8 0 4 8 3 18 -2 11 -6 24 -6 34 0 10 6 19 6 23 0 3 -7 15
-7 29 -1 13 5 27 6 30 2 10 -9 69 -9 89 0 10 6 17 5 17 -2 0 -8 6 -8 20 0 14
8 20 8 20 0 0 -7 6 -8 19 0 14 7 22 7 26 0 5 -8 11 -7 21 1 11 9 18 9 26 1 7
-7 19 -7 34 -2 13 5 24 6 24 2 0 -4 11 -7 25 -7 14 0 25 2 25 5 0 3 16 5 35 5
19 0 35 -2 35 -5 0 -3 11 -5 25 -5 14 0 25 3 25 7 0 4 10 4 23 0 26 -9 69 -8
86 2 6 4 11 2 11 -4 0 -8 6 -8 20 0 14 8 20 8 20 0 0 -8 6 -8 20 0 14 8 20 8
20 0 0 -7 6 -7 21 1 14 7 24 8 31 1 7 -7 19 -7 35 -1 13 5 22 6 20 1 -3 -4 8
-7 24 -7 16 0 29 4 29 8 0 4 8 3 18 -2 11 -6 24 -6 34 0 10 6 19 6 23 0 3 -7
15 -7 30 -1 13 5 26 6 29 1 5 -7 80 -5 104 4 6 2 12 1 12 -3 0 -4 11 -7 25 -7
14 0 25 4 25 8 0 4 9 3 20 -3 12 -6 20 -7 20 -1 0 6 11 6 30 1 19 -5 30 -5 30
1 0 7 6 7 17 0 11 -6 24 -6 35 0 9 5 19 5 22 1 3 -5 26 -6 51 -2 25 4 45 4 45
1 0 -3 11 -6 25 -6 14 0 25 4 25 8 0 4 9 3 20 -3 12 -6 20 -7 20 -1 0 6 11 6
30 1 19 -5 30 -5 30 1 0 6 6 6 18 0 11 -6 24 -6 34 0 10 6 19 6 23 0 3 -7 15
-7 30 -1 15 6 27 6 30 0 3 -6 16 -5 31 0 14 6 23 7 21 2 -3 -4 8 -7 24 -7 16
0 29 4 29 8 0 4 8 4 17 -2 10 -5 26 -5 40 0 14 5 23 5 23 -1 0 -6 10 -6 26 0
15 6 23 6 19 1 -3 -6 6 -6 24 -1 19 5 33 4 40 -3 13 -13 12 -21 12 128 -1 210
0 198 -16 191 -8 -3 -15 -2 -15 2 0 4 -13 7 -29 7 -16 0 -27 -3 -24 -7 2 -5
-6 -4 -19 0 -27 9 -70 8 -87 -2 -6 -4 -11 -2 -11 4 0 8 -6 8 -20 0 -14 -8 -20
-8 -20 0 0 8 -6 8 -20 0 -14 -8 -20 -8 -20 0 0 6 -5 8 -11 5 -13 -9 -79 -12
-79 -5 0 3 -11 5 -25 5 -14 0 -25 -4 -25 -8 0 -4 -9 -3 -20 3 -12 6 -20 7 -20
1 0 -6 -11 -6 -30 -1 -19 5 -30 5 -30 -1 0 -6 -6 -6 -18 0 -11 6 -24 6 -34 0
-9 -5 -19 -5 -22 -1 -3 5 -26 6 -51 2 -25 -4 -45 -4 -45 -1 0 3 -11 6 -25 6
-14 0 -25 -4 -25 -8 0 -4 -9 -3 -20 3 -12 6 -20 7 -20 1 0 -6 -11 -6 -30 -1
-19 5 -30 5 -30 -1 0 -6 -6 -6 -18 0 -11 6 -24 6 -34 0 -10 -6 -19 -6 -23 0
-3 7 -15 7 -30 1 -15 -6 -27 -6 -30 0 -3 6 -15 6 -30 0 -14 -5 -25 -6 -25 -2
0 4 -11 7 -25 7 -14 0 -25 -4 -25 -8 0 -4 -8 -4 -17 2 -10 5 -26 5 -40 0 -14
-5 -23 -5 -23 1 0 6 -9 6 -24 0 -13 -5 -27 -6 -30 -2 -10 9 -69 9 -88 0 -11
-6 -18 -5 -18 2 0 8 -6 8 -20 0 -14 -8 -20 -8 -20 0 0 7 -6 8 -19 0 -14 -7
-22 -7 -26 0 -5 8 -11 7 -21 -1 -11 -9 -18 -9 -26 -1 -7 7 -19 7 -34 2 -13 -5
-24 -6 -24 -2 0 4 -11 7 -25 7 -14 0 -25 -2 -25 -5 0 -3 -16 -5 -35 -5 -19 0
-35 2 -35 5 0 3 -11 5 -25 5 -14 0 -25 -3 -25 -7 0 -4 -10 -4 -22 0 -27 9 -70
8 -87 -2 -6 -4 -11 -2 -11 4 0 8 -6 8 -20 0 -14 -8 -20 -8 -20 0 0 8 -6 8 -20
0 -14 -8 -20 -8 -20 0 0 7 -6 7 -21 -1 -14 -7 -24 -8 -31 -1 -7 7 -19 7 -34 2
-13 -5 -24 -6 -24 -2 0 4 -11 7 -25 7 -14 0 -25 -4 -25 -8 0 -4 -8 -4 -17 2
-10 5 -26 5 -40 0 -14 -5 -23 -5 -23 1 0 6 -9 6 -25 0 -13 -5 -26 -6 -29 -1
-5 7 -80 5 -103 -4 -7 -2 -13 -1 -13 3 0 4 -11 7 -25 7 -14 0 -25 -4 -25 -8 0
-4 -9 -3 -20 3 -12 6 -20 7 -20 1 0 -6 -11 -6 -30 -1 -19 5 -30 5 -30 -1 0 -6
-8 -5 -20 1 -13 7 -20 7 -20 1 0 -7 -9 -7 -25 -1 -14 5 -25 6 -25 1z"/>
<path d="M4159 6236 c-4 -56 -3 -76 3 -76 4 0 3 -11 -2 -25 -6 -15 -6 -26 0
-30 6 -4 7 -13 1 -23 -6 -11 -6 -24 0 -34 6 -10 6 -19 0 -23 -7 -4 -7 -15 -1
-30 5 -14 6 -25 2 -25 -4 0 -7 -25 -7 -55 0 -30 3 -55 7 -55 4 0 3 -11 -2 -25
-6 -15 -6 -26 1 -30 5 -4 7 -11 4 -16 -9 -14 -12 -88 -4 -101 4 -6 3 -22 -1
-34 -6 -14 -5 -26 0 -29 6 -4 7 -13 1 -23 -6 -11 -6 -24 0 -34 6 -10 6 -19 0
-23 -7 -4 -7 -15 -1 -30 6 -15 6 -25 0 -25 -5 0 -5 -12 -1 -27 5 -16 5 -37 1
-48 -4 -11 -4 -30 1 -42 5 -13 5 -23 1 -23 -4 0 -7 -25 -7 -55 0 -30 3 -55 7
-55 4 0 3 -13 -2 -30 -5 -16 -6 -30 -2 -30 4 0 6 -21 5 -47 -1 -27 -2 -48 -3
-48 -1 0 -2 -15 -3 -33 -1 -17 1 -32 5 -32 4 0 4 -10 -1 -22 -5 -13 -5 -32 -1
-43 4 -11 5 -24 2 -29 -9 -15 -8 -66 1 -66 5 0 5 -5 2 -10 -9 -14 -11 -98 -3
-105 3 -4 2 -20 -2 -36 -5 -16 -5 -29 0 -29 4 0 7 -7 6 -16 0 -9 9 -20 22 -25
13 -5 22 -5 22 1 0 5 6 7 13 5 21 -9 107 -11 107 -4 0 4 14 4 30 -1 17 -5 30
-5 30 0 0 5 12 5 28 1 15 -4 37 -5 49 -3 19 3 21 7 13 21 -5 10 -7 21 -3 24 8
9 9 137 1 137 -4 0 -3 11 2 25 6 15 6 26 0 30 -6 4 -7 13 -1 24 6 10 6 23 1
31 -5 8 -6 18 -3 23 5 8 7 159 2 183 -1 5 0 11 1 14 5 15 4 70 -2 70 -4 0 -4
10 1 23 5 12 5 31 1 42 -4 11 -5 24 -2 29 8 14 8 66 0 66 -4 0 -4 10 1 23 5
12 5 31 1 42 -4 11 -5 24 -2 29 8 14 8 66 0 66 -4 0 -4 10 1 23 5 12 5 31 1
42 -4 11 -5 24 -2 29 8 14 8 66 0 66 -4 0 -4 10 0 23 9 24 8 56 -1 81 -4 9 -3
16 1 16 4 0 7 14 7 30 0 17 -3 30 -7 30 -4 0 -3 11 2 25 6 15 6 26 0 30 -6 4
-7 13 -1 23 6 11 6 24 0 34 -6 10 -6 19 0 23 7 4 7 15 1 30 -5 14 -6 25 -2 25
8 0 6 85 -3 108 -2 6 -1 12 4 12 13 0 1 46 -12 48 -58 6 -87 6 -87 -1 0 -4 -9
-3 -20 3 -12 6 -20 7 -20 1 0 -6 -11 -6 -30 -1 -19 5 -30 5 -30 -1 0 -6 -6 -6
-18 0 -10 6 -24 6 -32 1 -8 -5 -19 -6 -24 -2 -18 10 -46 9 -47 -2z"/>
<path d="M8010 6237 c-17 -13 -23 -47 -8 -47 5 0 6 -4 3 -10 -10 -16 -11 -90
-2 -90 4 0 5 -5 2 -11 -11 -16 -12 -69 -3 -69 5 0 4 -8 -1 -18 -6 -11 -6 -24
0 -34 6 -10 6 -19 0 -23 -7 -4 -7 -15 -1 -30 5 -14 6 -25 2 -25 -4 0 -7 -11
-7 -25 0 -14 3 -25 7 -25 4 0 3 -11 -2 -25 -5 -14 -5 -27 0 -30 5 -3 5 -18 0
-34 -4 -15 -4 -34 0 -42 5 -7 5 -20 0 -29 -5 -9 -4 -23 1 -33 6 -9 6 -17 2
-17 -4 0 -8 -11 -8 -25 0 -14 3 -25 7 -25 4 0 3 -11 -2 -25 -6 -15 -6 -26 0
-30 6 -4 7 -13 1 -24 -6 -10 -6 -23 -1 -31 5 -8 6 -18 3 -23 -9 -15 -10 -67
-1 -67 5 0 4 -8 -1 -18 -6 -11 -6 -24 0 -34 6 -10 6 -19 0 -23 -7 -4 -7 -15
-1 -30 5 -14 6 -25 2 -25 -4 0 -7 -11 -7 -25 0 -14 3 -25 7 -25 4 0 3 -11 -2
-24 -5 -15 -5 -27 2 -34 7 -7 6 -17 -1 -31 -8 -15 -8 -21 -1 -21 8 0 8 -6 0
-20 -8 -14 -8 -20 0 -20 8 0 8 -6 0 -20 -8 -14 -8 -20 0 -20 8 0 8 -6 0 -20
-8 -14 -8 -20 0 -20 8 0 8 -6 0 -20 -8 -14 -8 -20 0 -20 8 0 8 -6 0 -20 -8
-14 -8 -20 0 -20 8 0 8 -6 0 -20 -8 -14 -8 -20 0 -20 6 0 8 -5 5 -11 -10 -15
-12 -79 -3 -79 3 0 3 -13 -2 -30 -5 -19 -5 -30 1 -30 6 0 6 -6 0 -18 -6 -11
-6 -24 0 -35 6 -9 6 -17 2 -17 -4 0 -8 -25 -8 -55 0 -30 3 -55 7 -55 4 0 3
-13 -2 -30 -5 -19 -5 -30 1 -30 6 0 6 -6 0 -18 -6 -11 -6 -24 0 -35 6 -9 6
-17 2 -17 -4 0 -8 -25 -8 -55 0 -30 3 -55 7 -55 4 0 3 -13 -2 -30 -5 -16 -5
-30 -2 -30 9 0 7 -64 -3 -79 -3 -6 -1 -11 5 -11 8 0 8 -6 0 -20 -8 -14 -8 -20
0 -20 8 0 8 -6 0 -20 -8 -14 -8 -20 0 -20 8 0 8 -6 0 -20 -8 -14 -8 -20 0 -20
8 0 8 -6 0 -20 -8 -14 -8 -20 0 -20 8 0 8 -6 0 -20 -8 -14 -8 -20 0 -20 8 0 8
-6 0 -20 -8 -14 -8 -20 0 -20 6 0 8 -4 5 -10 -12 -19 -14 -50 -4 -56 6 -4 6
-10 -1 -19 -7 -9 -8 -15 -1 -19 7 -4 7 -15 1 -31 -6 -16 -6 -27 1 -31 8 -4 7
-9 -2 -15 -18 -11 30 -29 51 -19 8 4 24 4 35 0 11 -4 31 -4 45 -1 14 4 43 4
65 1 22 -3 52 -3 66 1 15 4 32 2 38 -4 15 -15 28 25 23 72 -2 20 -3 41 -3 46
0 6 2 36 3 68 2 31 0 57 -4 57 -4 0 -3 11 2 25 6 15 6 25 0 25 -5 0 -5 12 0
29 5 17 4 33 -2 39 -6 6 -6 12 1 16 8 5 8 13 1 27 -6 10 -7 19 -3 19 4 0 8 14
8 30 0 17 -3 30 -7 30 -4 0 -3 11 2 25 6 15 6 25 0 25 -5 0 -5 12 0 29 5 17 4
33 -2 39 -6 6 -6 12 1 16 8 5 8 13 1 27 -6 10 -7 19 -3 19 4 0 8 14 8 30 0 17
-3 30 -7 30 -4 0 -3 11 2 25 6 15 6 25 0 25 -5 0 -5 12 0 29 5 17 4 33 -2 39
-6 6 -6 12 1 16 8 5 8 13 1 27 -6 10 -7 19 -3 19 4 0 8 14 8 30 0 17 -3 30 -7
30 -4 0 -3 11 2 25 6 15 6 25 0 25 -5 0 -5 12 0 29 5 17 4 33 -2 39 -6 6 -6
12 1 16 8 5 8 13 1 27 -6 10 -7 19 -3 19 4 0 8 14 8 30 0 17 -3 30 -7 30 -4 0
-3 11 2 25 6 17 6 25 -1 25 -6 0 -7 6 0 17 5 10 5 26 0 40 -5 14 -5 23 1 23 6
0 6 9 0 25 -5 14 -6 25 -2 25 4 0 7 22 7 49 0 27 -3 47 -7 44 -5 -2 -4 6 1 19
4 13 5 32 1 43 -4 11 -4 29 0 40 4 11 4 29 0 40 -4 11 -4 29 0 40 4 11 4 29 0
40 -4 11 -4 29 0 40 4 11 4 29 0 40 -4 11 -4 29 0 40 4 11 4 29 0 40 -4 11 -4
29 0 40 4 11 4 29 0 40 -4 11 -4 29 0 40 4 11 4 29 0 40 -4 11 -4 29 0 40 4
11 4 29 0 40 -4 11 -4 29 0 40 4 11 4 29 0 40 -4 11 -4 29 0 40 4 11 4 29 0
40 -4 11 -4 29 0 40 4 11 4 29 0 40 -4 11 -6 23 -3 27 8 15 9 78 1 78 -5 0 -6
5 -3 11 10 16 12 69 4 75 -5 3 -5 12 -2 21 5 12 2 15 -10 10 -9 -3 -17 -3 -17
1 0 4 -13 7 -29 7 -16 0 -27 -3 -24 -7 2 -5 -6 -4 -19 0 -27 9 -70 8 -87 -2
-6 -4 -11 -2 -11 4 0 8 -6 8 -20 0 -14 -8 -20 -8 -20 0 0 7 -6 8 -18 1 -11 -6
-23 -6 -28 -1 -5 5 -15 4 -24 -3z"/>
<path d="M8990 6243 c-42 -13 -42 -13 -31 -27 6 -7 8 -15 5 -19 -7 -7 -11 -77
-4 -77 7 0 4 -69 -3 -76 -3 -3 -2 -17 3 -30 5 -13 6 -24 2 -24 -4 0 -7 -25 -7
-55 0 -30 3 -55 7 -55 4 0 3 -13 -2 -30 -5 -16 -5 -30 0 -30 4 0 4 -15 0 -34
-4 -19 -4 -40 1 -47 4 -7 4 -18 -1 -24 -5 -6 -5 -17 0 -25 4 -7 4 -24 0 -36
-6 -14 -5 -26 0 -29 6 -4 7 -13 1 -23 -6 -11 -6 -24 0 -34 6 -10 6 -19 0 -23
-7 -4 -7 -15 -1 -30 6 -15 6 -25 0 -25 -5 0 -5 -12 0 -30 5 -16 6 -30 2 -30
-4 0 -7 -25 -7 -55 0 -30 3 -55 7 -55 4 0 3 -11 -2 -25 -6 -15 -6 -26 0 -30 6
-4 7 -13 1 -24 -5 -9 -6 -23 -1 -31 4 -7 4 -24 0 -36 -6 -14 -5 -26 0 -29 6
-4 7 -13 1 -23 -6 -11 -6 -24 0 -34 6 -10 6 -19 0 -23 -7 -4 -7 -15 -1 -30 6
-15 6 -25 0 -25 -5 0 -5 -12 0 -30 5 -16 6 -30 2 -30 -4 0 -7 -25 -7 -55 0
-30 3 -55 7 -55 4 0 3 -11 -2 -25 -6 -15 -6 -26 0 -30 6 -4 7 -13 1 -24 -5 -9
-6 -23 -1 -31 4 -7 4 -24 0 -36 -6 -14 -5 -26 0 -29 6 -4 7 -13 1 -23 -6 -11
-6 -24 0 -34 6 -10 6 -19 0 -23 -7 -4 -7 -15 -1 -30 6 -15 6 -25 0 -25 -5 0
-5 -12 0 -30 5 -16 6 -30 2 -30 -8 0 -8 -53 1 -66 3 -6 2 -16 -3 -24 -5 -8 -5
-21 1 -31 6 -11 5 -20 -1 -24 -6 -4 -6 -15 0 -30 6 -15 6 -25 0 -25 -5 0 -5
-12 0 -30 5 -17 5 -32 0 -35 -5 -3 -5 -16 0 -30 5 -14 6 -25 2 -25 -4 0 -7
-25 -7 -55 0 -30 3 -55 7 -55 4 0 3 -11 -2 -25 -6 -15 -6 -26 0 -30 6 -4 7
-13 1 -23 -6 -11 -6 -24 0 -34 6 -10 6 -19 0 -23 -7 -4 -7 -15 -1 -30 5 -14 6
-25 2 -25 -8 0 -6 -85 2 -107 3 -6 0 -14 -7 -17 -9 -3 -9 -5 0 -5 6 -1 9 -10
6 -21 -6 -21 -12 -20 107 -22 22 -1 43 2 46 5 3 3 12 3 20 0 8 -3 42 -6 76 -7
53 -1 63 -4 62 -18 -1 -10 2 -18 6 -18 5 0 5 -13 0 -29 -4 -15 -4 -34 0 -42 5
-7 7 -16 4 -21 -8 -12 -8 -144 0 -156 4 -7 2 -12 -4 -12 -6 0 -8 -4 -5 -10 3
-5 16 -10 28 -10 23 1 212 0 312 -1 122 0 441 1 486 3 25 1 50 -1 55 -3 5 -3
27 -2 49 2 22 3 37 7 33 8 -4 0 -4 11 1 24 5 12 5 32 0 44 -4 12 -4 25 0 28 5
3 5 20 1 39 -4 19 -5 37 -3 40 7 7 8 95 0 102 -3 3 -3 13 0 21 5 13 1 15 -20
11 -15 -3 -27 -2 -27 1 0 3 -35 5 -77 4 -43 -1 -89 -3 -103 -3 -14 0 -36 -1
-50 -1 -14 -1 -32 -1 -40 -1 -8 1 -46 1 -85 1 -38 0 -81 1 -95 1 -120 5 -220
4 -220 -2 0 -4 -6 -5 -14 -2 -23 9 -106 10 -106 1 0 -5 -5 -5 -11 -2 -5 4 -33
7 -60 7 -40 -1 -50 2 -45 14 3 8 1 14 -5 14 -6 0 -7 4 -4 10 9 15 12 90 3 90
-4 0 -5 6 -3 13 9 22 11 117 3 117 -4 0 -3 11 2 25 6 15 6 26 0 30 -6 4 -7 13
-1 24 5 9 6 23 1 31 -4 7 -4 23 0 36 5 12 6 25 3 28 -5 5 -8 71 -3 79 6 8 4
67 -2 67 -4 0 -4 10 1 23 5 12 5 31 1 42 -4 11 -5 24 -2 29 8 14 8 66 0 66 -4
0 -4 10 1 23 5 12 5 31 1 42 -4 11 -5 24 -2 29 8 14 8 66 0 66 -4 0 -4 10 1
23 5 12 5 31 1 42 -4 11 -5 24 -2 29 8 14 8 66 0 66 -4 0 -4 10 1 23 5 12 9
24 11 27 1 3 -3 17 -9 33 -6 15 -7 27 -3 27 4 0 7 29 7 65 0 36 -3 65 -7 65
-4 0 -3 11 2 25 6 15 6 26 0 30 -6 4 -7 13 -1 24 5 9 6 23 1 31 -4 7 -6 18 -4
24 8 21 10 106 2 106 -4 0 -3 11 2 25 6 15 6 26 0 30 -6 4 -7 13 -1 24 5 9 6
23 1 31 -4 7 -4 23 0 36 5 12 6 25 3 28 -5 5 -8 71 -3 79 6 8 4 67 -2 67 -4 0
-4 10 1 23 5 12 5 31 1 42 -4 11 -5 24 -2 29 8 14 8 66 0 66 -4 0 -4 10 1 23
5 12 5 31 1 42 -4 11 -5 24 -2 29 8 14 8 66 0 66 -4 0 -4 10 1 23 5 12 5 31 1
42 -4 11 -5 24 -2 29 9 15 8 66 -1 66 -5 0 -5 4 -2 10 9 15 12 89 4 102 -4 6
-3 21 1 34 5 12 6 25 2 29 -4 3 -7 14 -7 22 0 9 -12 20 -27 24 -16 4 -28 3
-28 -2 0 -6 -7 -6 -18 0 -11 6 -24 6 -34 0 -10 -6 -19 -6 -23 0 -4 7 -15 7
-31 1 -14 -6 -23 -7 -21 -2 3 4 -8 7 -24 7 -16 0 -29 -4 -29 -8 0 -4 -8 -4
-17 1 -10 5 -25 7 -33 5z"/>
<path d="M11890 6241 c0 -5 -8 -7 -19 -4 -10 3 -22 0 -25 -6 -5 -8 -7 -115 -6
-276 1 -24 1 -126 1 -140 0 -184 0 -303 0 -315 0 -41 0 -188 -2 -210 0 -14 -1
-32 0 -40 0 -8 0 -58 0 -110 0 -52 0 -187 1 -300 1 -223 1 -226 0 -286 -1 -23
0 -46 1 -50 1 -5 1 -11 0 -14 -7 -17 -5 -110 2 -110 5 0 6 -4 3 -9 -5 -7 -7
-62 -5 -111 0 -8 0 -134 -1 -280 -1 -146 0 -272 2 -280 2 -12 -11 -15 -80 -15
-45 0 -82 -3 -82 -7 0 -4 -7 -5 -15 -2 -22 9 -225 10 -225 2 0 -4 -6 -5 -14
-2 -20 8 -106 10 -106 2 0 -3 -8 -4 -17 -2 -31 8 -183 9 -183 2 0 -4 -6 -5
-14 -2 -19 7 -106 10 -106 3 0 -3 -22 -3 -50 1 -27 3 -55 3 -61 -1 -7 -4 -11
-33 -10 -73 2 -78 2 -79 0 -136 0 -25 0 -49 1 -55 1 -5 3 -21 3 -35 1 -17 7
-24 17 -22 8 2 22 3 30 3 64 -2 175 1 182 5 4 3 8 2 8 -3 0 -4 24 -7 52 -5 29
2 59 3 66 3 6 0 63 -1 125 -1 61 0 139 0 172 -1 33 0 98 0 145 1 112 1 127 1
142 -2 16 -4 26 70 17 124 -3 21 -4 40 -1 42 5 6 6 113 0 136 -3 16 34 23 102
20 8 -1 38 0 67 1 29 2 55 0 58 -3 3 -3 22 -2 41 2 23 5 34 4 34 -3 0 -8 3 -8
11 0 6 6 10 101 9 274 0 145 -1 273 -1 284 0 11 0 67 0 125 0 58 0 112 0 120
0 8 0 62 0 120 0 58 0 112 0 120 0 8 0 62 0 120 0 58 0 110 0 115 0 6 0 282 1
615 0 333 1 620 0 639 0 25 -4 32 -15 27 -8 -3 -15 -2 -15 2 0 4 -13 7 -29 7
-16 0 -27 -4 -23 -9 3 -5 0 -6 -7 -2 -16 10 -101 13 -101 3 0 -4 -9 -3 -20 3
-14 8 -20 8 -20 0 0 -8 -6 -8 -20 0 -12 6 -20 7 -20 1z"/>
<path d="M10718 5943 c-19 -5 -18 16 -19 -511 0 -119 -2 -144 -15 -149 -25 -9
-35 11 -35 71 0 45 -4 56 -17 57 -61 4 -315 3 -321 -1 -4 -3 -7 -32 -7 -65 1
-57 0 -60 -24 -60 -14 -1 -31 -4 -37 -8 -7 -5 -13 -4 -13 1 0 7 -14 8 -51 3
-3 -1 -6 -196 -6 -435 l0 -435 59 1 c32 1 61 -2 65 -6 4 -4 8 -33 8 -64 l0
-57 172 -2 173 -2 -2 60 c-2 42 2 63 12 69 29 18 40 -1 40 -66 l0 -64 63 1
c34 1 67 0 72 -1 6 -1 25 -2 43 -1 l32 1 0 829 0 829 -37 4 c-21 3 -40 1 -43
-3 -3 -4 -12 -4 -19 1 -8 4 -24 4 -36 0 -13 -5 -26 -5 -31 -1 -5 4 -17 6 -26
4z m-165 -742 c10 -1 17 -7 16 -13 -1 -7 -1 -37 0 -65 l1 -53 65 0 65 0 -3
-222 -2 -223 -57 -1 c-32 0 -61 -3 -64 -7 -4 -4 -7 -34 -6 -67 l0 -60 -89 0
c-49 0 -90 3 -90 8 -1 4 -2 162 -3 351 -1 319 0 344 16 350 15 5 78 6 151 2z"/>
<path d="M2580 5495 l0 -75 -75 0 -75 0 0 -120 c0 -107 2 -120 18 -121 53 -2
215 2 220 5 4 2 6 36 5 74 l-2 70 180 -2 181 -1 0 -160 c-1 -88 -1 -169 -1
-180 -1 -19 -7 -20 -226 -19 l-225 2 0 -77 0 -76 -75 1 -75 1 0 -193 c0 -148
3 -194 13 -195 6 -1 39 -2 72 -3 l60 -1 5 -75 5 -75 193 0 c165 0 192 2 193
15 0 8 2 41 2 74 2 56 3 59 30 62 26 3 27 1 28 -49 1 -29 1 -62 1 -74 -1 -28
-12 -25 128 -27 l115 -1 -1 565 c-1 311 -2 568 -3 572 0 4 -34 8 -73 10 l-73
3 0 70 0 70 -273 3 -272 2 0 -75z m453 -780 c3 -5 1 -19 -3 -30 -7 -18 -16
-20 -77 -19 l-69 1 1 -46 c0 -25 -3 -52 -8 -58 -6 -8 -6 -13 1 -13 5 0 8 -8 6
-17 -4 -16 -18 -18 -97 -18 -51 0 -98 4 -104 8 -9 5 -12 37 -11 100 1 51 2 95
4 98 5 10 353 5 357 -6z"/>
<path d="M6498 5563 c-3 -5 -4 -38 -3 -75 l0 -68 -72 0 c-51 0 -73 -4 -74 -12
-7 -82 -2 -364 7 -373 6 -6 38 -10 72 -8 34 1 63 -1 63 -5 1 -4 2 -35 3 -69 1
-34 5 -65 8 -68 3 -4 37 -7 75 -8 73 -2 68 1 72 -60 1 -15 9 -18 49 -16 94 3
100 1 98 -25 -5 -42 8 -50 81 -51 l68 0 0 -105 0 -104 -174 -1 c-141 0 -175 3
-179 14 -3 8 -6 76 -6 150 l-1 136 -117 1 c-114 1 -118 1 -119 -20 -4 -73 -3
-359 1 -365 3 -4 36 -7 75 -6 l69 0 2 -60 c1 -33 3 -67 3 -75 1 -14 36 -15
269 -15 l267 0 0 48 c0 26 4 47 9 47 6 0 5 5 -1 11 -6 6 -9 18 -6 28 4 14 16
17 79 16 l74 -1 0 197 0 197 -37 -2 c-21 -2 -48 1 -59 5 -13 4 -26 3 -32 -3
-15 -15 -32 30 -22 57 4 11 4 30 -1 42 -5 13 -4 25 2 28 22 15 -6 22 -76 21
l-75 -1 0 36 c0 42 -7 46 -92 44 -52 -2 -58 0 -59 19 -3 51 -3 51 -51 51 -27
0 -48 4 -48 8 0 5 -6 5 -13 -1 -34 -29 -43 12 -38 180 l1 26 179 0 179 0 0
-145 c1 -80 3 -148 6 -151 5 -4 161 -7 219 -3 16 1 17 17 17 196 l0 195 -76 0
c-47 0 -73 4 -69 10 3 6 3 10 -2 10 -4 0 -8 11 -8 25 0 14 4 25 8 25 5 0 5 6
0 13 -4 6 -7 23 -8 37 l0 25 -267 3 c-147 1 -268 -1 -270 -5z"/>
</g>
</svg>
